<?xml version="1.0" encoding="UTF-8" standalone="no"?>
<!-- Created with Inkscape (http://www.inkscape.org/) -->

<svg
   version="1.1"
   id="svg1825"
   width="128"
   height="128"
   viewBox="0 0 128 128"
   sodipodi:docname="logo.svg"
   inkscape:version="1.2.1 (9c6d41e410, 2022-07-14)"
   xmlns:inkscape="http://www.inkscape.org/namespaces/inkscape"
   xmlns:sodipodi="http://sodipodi.sourceforge.net/DTD/sodipodi-0.dtd"
   xmlns="http://www.w3.org/2000/svg"
   xmlns:svg="http://www.w3.org/2000/svg">
  <defs
     id="defs1829" />
  <sodipodi:namedview
     id="namedview1827"
     pagecolor="#505050"
     bordercolor="#eeeeee"
     borderopacity="1"
     inkscape:showpageshadow="0"
     inkscape:pageopacity="0"
     inkscape:pagecheckerboard="0"
     inkscape:deskcolor="#505050"
     showgrid="false"
     showguides="false"
     inkscape:zoom="6.5941101"
     inkscape:cx="90.459514"
     inkscape:cy="64.754757"
     inkscape:window-width="1920"
     inkscape:window-height="1027"
     inkscape:window-x="-8"
     inkscape:window-y="22"
     inkscape:window-maximized="1"
     inkscape:current-layer="g1831" />
  <g
     inkscape:groupmode="layer"
     inkscape:label="Image"
     id="g1831">
    <rect
       style="fill:#ffffff;stroke:#ffffff;stroke-width:1.4976"
       id="rect182"
       width="126.5024"
       height="126.5024"
       x="0.74880159"
       y="0.74880159"
       inkscape:label="background"
       sodipodi:insensitive="true" />
    <path
       style="display:inline;fill:#293d82;fill-opacity:1;stroke-width:0.164223"
       d="m 24.058852,127.80526 c -8.084827,-1.77824 -11.417773,-9.92847 -6.528066,-15.96343 0.629372,-0.77678 26.094528,-26.00885 39.996458,-39.630365 4.357711,-4.269816 5.674295,-4.834993 8.273908,-3.551801 1.271748,0.627743 44.730988,43.863836 46.009298,45.773056 3.67526,5.48918 2.04069,11.00307 -3.87503,13.07164 l -1.31571,0.46007 -40.787042,0.029 c -33.314448,0.0236 -40.967821,-0.0108 -41.773816,-0.18811 z m 80.571498,-3.85438 c 5.15456,-1.31447 6.77579,-5.52091 3.86094,-10.01758 -0.87043,-1.34278 -42.220013,-42.817191 -43.363283,-43.494184 -0.975584,-0.577702 -2.113946,-0.555139 -3.015439,0.05976 -0.836078,0.570277 -42.733334,41.971664 -43.37271,42.859374 -3.331719,4.62578 -1.835678,9.20142 3.460834,10.58496 1.913989,0.49997 80.470478,0.50727 82.429658,0.008 z m -75.208606,-2.64114 c -4.498223,-0.88082 -6.187995,-5.38917 -3.414091,-9.10888 1.05645,-1.41666 27.526995,-27.480515 28.255169,-27.821062 0.746095,-0.348925 2.091229,-0.362125 2.899662,-0.02844 0.752668,0.310656 26.810355,26.188042 27.93555,27.742252 2.80859,3.87945 1.304106,8.20395 -3.18403,9.1522 -1.278722,0.27017 -51.128967,0.33089 -52.49226,0.0639 z m 52.800845,-2.08346 c 2.258839,-0.91055 2.995005,-2.83551 1.940705,-5.07463 -0.430736,-0.91479 -25.458767,-26.058697 -26.101543,-26.222388 -0.828563,-0.211 -1.377729,0.291531 -14.830252,13.571008 -15.293713,15.09699 -15.264001,15.06254 -14.749959,17.10465 0.266507,1.05875 -0.0792,1.04599 27.647761,1.01998 l 25.162968,-0.0236 z m 9.090657,-5.94963 c -2.394681,-2.39118 -3.048255,-3.22485 -1.982165,-2.52836 0.552085,0.36068 0.71789,0.23977 3.432541,-2.50308 2.250456,-2.27384 2.228469,-2.24023 1.833443,-2.80256 -0.651992,-0.92813 0.08241,-0.45029 1.537012,1.00006 1.317967,1.31412 2.083495,2.43414 1.071076,1.56706 -0.158852,-0.13604 -0.386598,-0.30308 -0.506102,-0.37118 -0.209491,-0.11938 -5.127792,4.54879 -5.127792,4.86702 0,1.0637 2.19939,2.0926 3.455565,1.61656 1.545857,-0.58582 1.550077,-0.4109 0.02015,0.83531 l -1.129255,0.91985 z m -4.965215,-5.00121 c -3.670201,-1.82359 -3.330351,-7.07448 0.530304,-8.19352 3.53625,-1.025017 6.879234,2.87035 5.254028,6.12218 -1.083626,2.1682 -3.702173,3.10589 -5.784332,2.07134 z m 1.489842,-1.15727 c 3.419825,-1.73087 4.653376,-5.98922 1.72687,-5.96136 -1.597015,0.0152 -4.555329,3.009 -4.568425,4.62321 -0.01002,1.2352 1.572506,1.98045 2.841555,1.33815 z m -8.232859,-5.56603 c -3.670201,-1.823598 -3.330352,-7.074488 0.530303,-8.193529 3.53625,-1.025011 6.879235,2.870354 5.254029,6.122178 -1.083627,2.168211 -3.702174,3.105901 -5.784332,2.071351 z m 1.489842,-1.15728 c 3.419825,-1.730865 4.653376,-5.989222 1.72687,-5.961356 -1.597016,0.01522 -4.55533,3.009002 -4.568425,4.623209 -0.01002,1.235207 1.572505,1.980457 2.841555,1.338147 z m -7.617847,-4.902297 c -1.462664,-1.464481 -1.844215,-2.073539 -0.921239,-1.470548 0.502766,0.328458 0.801304,0.159314 2.152281,-1.219455 l 0.816651,-0.833449 -0.976473,-0.983882 -0.976474,-0.983888 -1.114777,1.102996 c -1.141975,1.129914 -1.309985,1.526825 -0.857365,2.025503 0.949794,1.046442 -0.323973,0.173002 -1.576345,-1.08092 -1.416969,-1.41873 -1.873767,-2.129176 -0.957596,-1.489345 0.568295,0.396885 0.520785,0.429528 3.12763,-2.148962 2.498385,-2.471208 2.635949,-2.674071 2.165084,-3.192846 -0.952261,-1.049163 0.228481,-0.256075 1.503338,1.009766 1.257599,1.24871 2.1336,2.518754 1.084089,1.571736 -0.490415,-0.442523 -0.896045,-0.287523 -1.90317,0.727245 l -0.976484,0.983898 0.975955,0.983365 0.975954,0.98336 0.718023,-0.69639 c 1.239482,-1.202149 1.426493,-1.53815 1.117655,-2.008115 -0.6514,-0.991252 -0.131391,-0.68425 1.374183,0.81129 1.340514,1.331578 2.195119,2.546446 1.184577,1.683937 -0.630226,-0.537906 -0.674384,-0.510674 -3.161304,1.949189 -2.486899,2.459847 -2.706807,2.795679 -2.197848,3.356435 0.949794,1.046442 -0.323974,0.173002 -1.576345,-1.08092 z m -7.029103,-7.059069 c -2.824075,-1.403182 -3.490842,-4.844596 -1.351841,-6.977339 2.193835,-2.187425 5.682976,-1.54372 7.220235,1.33204 0.472885,0.884632 0.587516,0.997985 0.92405,0.913769 0.704152,-0.176215 0.562688,0.166566 -0.503624,1.220305 -1.178949,1.165054 -1.398965,1.1865 -0.981145,0.09564 0.832871,-2.174461 -1.292912,-4.145153 -3.397319,-3.149463 -3.778459,1.787753 -3.887303,6.330098 -0.151682,6.330098 0.845653,0 0.990997,0.104969 0.635776,0.459152 -0.334499,0.333521 -1.489641,0.225364 -2.39445,-0.224206 z M 60.405361,82.487875 C 59.628598,82.121394 59.31216,81.79209 58.792675,80.809622 58.504411,80.26445 58.29696,80.068347 57.967431,80.029503 c -0.656765,-0.07742 -0.547335,-0.343652 0.612263,-1.48958 1.168151,-1.154384 1.561543,-1.215771 1.038687,-0.162077 -0.840523,1.693883 0.157695,3.855968 1.612219,3.491972 0.851336,-0.213045 0.924122,-0.902194 0.314197,-2.974826 -1.26061,-4.283815 3.065853,-6.163312 4.697509,-2.040687 0.183367,0.463298 0.275549,0.529501 0.618004,0.4438 0.528782,-0.132329 0.453036,0.0185 -0.563253,1.121439 -1.047455,1.136776 -1.533918,1.272892 -0.957781,0.267989 0.500803,-0.873502 0.178659,-2.549193 -0.566516,-2.946836 -1.266999,-0.676092 -1.860775,0.190609 -1.326802,1.93668 1.211765,3.962439 -0.17796,6.161113 -3.040597,4.810498 z M 117.76739,113.19987 C 114.66283,112.36608 115.13644,112.80053 90.397193,88.093065 66.097002,63.824097 67.888276,65.783489 67.888594,63.471959 c 3.29e-4,-2.081467 -1.209683,-0.752195 21.757066,-23.902263 25.11839,-25.318888 23.60462,-23.986544 27.74643,-24.420958 4.12917,-0.43309 9.15423,3.818722 10.30754,8.721425 C 127.98618,25.088338 128,26.995283 128,65.322917 v 40.175843 l -0.37175,1.39385 c -1.34785,5.05362 -5.24566,7.54676 -9.86086,6.30726 z m 2.66728,-4.02219 c 1.6385,-0.77996 2.89353,-2.52684 3.49722,-4.86779 0.44366,-1.72039 0.44133,-80.197615 -0.003,-81.919981 -1.3593,-5.275872 -5.73814,-6.908824 -10.32925,-3.851966 -0.99653,0.663513 -42.780874,42.550205 -43.429098,43.535482 -0.541713,0.823379 -0.567518,1.742786 -0.07698,2.742483 0.525708,1.071372 42.288638,42.579482 43.798798,43.531552 2.18356,1.37662 4.71814,1.69829 6.54173,0.83022 z M 114.53334,86.222019 C 112.5996,85.740053 112.63566,85.772747 98.192378,71.406334 90.522242,63.777019 84.375267,57.534596 84.213532,57.210422 c -0.404673,-0.811101 -0.3854,-2.368627 0.03911,-3.158329 0.395026,-0.73491 26.942378,-27.469777 27.992298,-28.190031 3.72376,-2.554524 7.97209,-0.914779 8.90842,3.438422 0.31582,1.468307 0.25885,51.498566 -0.06,52.71925 -0.84252,3.225198 -3.54202,4.954486 -6.55997,4.202285 z m 2.85875,-2.048332 c 0.52217,-0.265965 1.20593,-0.997596 1.52768,-1.634649 0.61485,-1.2174 0.62728,-1.812474 0.57707,-27.629042 -0.0564,-28.9868 0.098,-26.401265 -1.5767,-26.401265 -2.04433,0 -1.53319,-0.452065 -16.43135,14.532217 -13.668802,13.747817 -13.994441,14.100129 -13.797099,14.927203 0.132306,0.554504 24.882059,25.144955 25.960869,25.79377 1.30737,0.786278 2.7026,0.939909 3.73953,0.411766 z M 91.642174,80.971996 c -2.394681,-2.391185 -3.048255,-3.224854 -1.982165,-2.528367 0.552085,0.36068 0.71789,0.239774 3.43254,-2.503078 2.250457,-2.27384 2.22847,-2.240228 1.833443,-2.802557 -0.651991,-0.928128 0.08241,-0.450287 1.537013,1.000061 1.317967,1.314114 2.083494,2.434138 1.071075,1.567057 -0.158851,-0.136044 -0.386598,-0.303076 -0.506101,-0.371175 -0.209491,-0.119385 -5.127792,4.548786 -5.127792,4.867016 0,1.063696 2.19939,2.092602 3.455565,1.616559 1.545857,-0.585824 1.550077,-0.410895 0.02015,0.835315 l -1.129255,0.919847 z m -5.756235,-5.903389 c -2.394681,-2.391185 -3.048255,-3.224854 -1.982164,-2.528367 0.552084,0.360681 0.71789,0.239774 3.43254,-2.503077 2.250456,-2.27384 2.22847,-2.240229 1.833443,-2.802557 -0.651991,-0.928129 0.08241,-0.450287 1.537012,1.00006 1.317967,1.314114 2.083495,2.434139 1.071076,1.567058 -0.158851,-0.136044 -0.386598,-0.303077 -0.506101,-0.371176 -0.209491,-0.119384 -5.127793,4.548787 -5.127793,4.867016 0,1.063696 2.199391,2.092603 3.455565,1.61656 1.545858,-0.585824 1.550077,-0.410895 0.02015,0.835314 l -1.129255,0.919847 z m -4.514666,-4.337479 c -1.459457,-1.461273 -1.844431,-2.073678 -0.92662,-1.474068 0.567678,0.370873 0.643907,0.316476 3.273457,-2.3356 2.34066,-2.360715 2.444627,-2.518702 1.988281,-3.021485 -0.952261,-1.049163 0.228481,-0.256074 1.503338,1.009767 1.27458,1.265575 2.076402,2.432575 1.097041,1.596682 -0.630226,-0.537905 -0.674384,-0.510674 -3.161304,1.949189 -2.486898,2.459848 -2.706807,2.79568 -2.197848,3.356435 0.949794,1.046442 -0.323973,0.173002 -1.576345,-1.08092 z m -3.289277,-3.27966 c -1.462664,-1.464481 -1.844215,-2.073539 -0.921239,-1.470548 0.502766,0.328458 0.801304,0.159314 2.152282,-1.219455 l 0.81665,-0.833449 -0.976473,-0.983882 -0.976473,-0.983888 -1.114777,1.102996 c -1.141975,1.129914 -1.309985,1.526825 -0.857366,2.025503 0.949795,1.046442 -0.323973,0.173002 -1.576344,-1.08092 -1.416969,-1.41873 -1.873768,-2.129176 -0.957596,-1.489345 0.568294,0.396885 0.520785,0.429528 3.127629,-2.148961 2.498386,-2.471209 2.63595,-2.674071 2.165084,-3.192847 -0.952261,-1.049163 0.228482,-0.256075 1.503339,1.009766 1.257598,1.24871 2.133599,2.518754 1.084089,1.571736 -0.490416,-0.442523 -0.896045,-0.287523 -1.903171,0.727245 l -0.976483,0.983898 0.975954,0.983365 0.975954,0.98336 0.718024,-0.69639 c 1.239481,-1.202149 1.426492,-1.53815 1.117655,-2.008115 -0.6514,-0.991252 -0.131391,-0.68425 1.374183,0.81129 1.340513,1.331578 2.195119,2.546446 1.184576,1.683937 -0.630225,-0.537906 -0.674384,-0.510674 -3.161303,1.949189 -2.486899,2.459847 -2.706808,2.79568 -2.197849,3.356435 0.949794,1.046442 -0.323973,0.173002 -1.576345,-1.08092 z M 8.0990426,112.40328 c -3.1169933,-0.75504 -6.7761081,-4.6668 -7.76242182,-8.29838 -0.44882771,-1.65257 -0.44882771,-81.6508 0,-83.30337 C 2.1028998,14.298141 8.3799386,12.222069 13.87755,16.322994 c 2.155252,1.607703 45.270675,44.704517 45.740009,45.720263 0.637379,1.379456 0.641697,2.9085 0.01182,4.187286 -0.450678,0.914964 -41.231536,42.265717 -43.307685,43.912887 -2.535415,2.01155 -5.679975,2.87577 -8.2226452,2.25985 z m 1.3290904,-3.79383 c 1.346364,-0.34472 2.553412,-0.95463 3.675329,-1.85711 1.558756,-1.25387 42.585056,-42.6774 42.895198,-43.310513 0.374007,-0.763484 0.343802,-1.737292 -0.07898,-2.546451 C 55.44305,59.983169 13.684405,18.434727 12.435569,17.630156 7.7973044,14.641926 3.6278879,16.133067 2.1557951,21.306591 1.688999,22.9471 1.6893494,101.9605 2.1561569,103.60125 c 1.1229767,3.94704 3.912651,5.86829 7.271973,5.0082 z M 8.3862643,100.85339 C 6.8715667,100.31295 5.6337353,98.976582 5.0206604,97.219863 4.6801647,96.2442 4.6461633,45.012254 4.985136,43.692983 c 0.9377015,-3.649506 4.2968472,-5.209067 7.807943,-3.625017 1.094734,0.493895 27.608312,26.405133 28.814093,28.159485 1.426796,2.075928 1.058522,2.826924 -3.801652,7.752471 C 11.14865,102.99536 12.11047,102.18216 8.3862643,100.85339 Z M 12.065489,98.693634 C 13.16785,98.15907 39.908948,71.487182 40.256585,70.575503 40.376098,70.262081 40.35868,70.001681 40.192645,69.619626 39.812664,68.745269 15.020847,44.235334 14.045268,43.769545 11.882589,42.736977 9.9983464,43.330255 8.9851404,45.362794 l -0.3858887,0.774111 v 25.991307 c 0,27.837224 -0.026443,26.93792 0.7972914,27.114443 0.6648259,0.142465 1.6689169,-0.06408 2.6689459,-0.549021 z m 31.80803,-32.390047 c -1.462665,-1.464481 -1.844216,-2.073539 -0.921239,-1.470548 0.502765,0.328458 0.8013,0.159314 2.152278,-1.219455 l 0.816652,-0.833449 -0.976475,-0.983882 -0.976472,-0.983888 -1.114774,1.102996 c -1.141979,1.129914 -1.309986,1.526825 -0.857365,2.025503 0.949794,1.046442 -0.323974,0.173002 -1.576346,-1.08092 -1.416971,-1.41873 -1.873766,-2.129176 -0.957598,-1.489345 0.568293,0.396885 0.520785,0.429528 3.127629,-2.148962 2.498388,-2.471208 2.635951,-2.674071 2.165084,-3.192846 -0.95226,-1.049163 0.228483,-0.256075 1.503338,1.009766 1.2576,1.24871 2.133603,2.518754 1.084093,1.571736 -0.49042,-0.442523 -0.896048,-0.287523 -1.903172,0.727245 l -0.976486,0.983898 0.975954,0.983365 0.975957,0.98336 0.718021,-0.69639 c 1.239483,-1.202149 1.426492,-1.53815 1.117657,-2.008115 -0.651399,-0.991252 -0.131389,-0.68425 1.374184,0.81129 1.340515,1.331578 2.195118,2.546446 1.184575,1.683937 -0.630223,-0.537906 -0.674385,-0.510674 -3.161302,1.949189 -2.486902,2.459847 -2.70681,2.795679 -2.197847,3.356435 0.949793,1.046442 -0.323974,0.173002 -1.576346,-1.08092 z m -6.55164,-6.76023 c -2.227276,-1.187616 -3.329249,-2.665093 -3.442491,-4.615538 -0.28716,-4.946034 6.230574,-6.174155 8.541576,-1.609473 0.430982,0.851277 0.540342,0.960352 0.895068,0.892739 0.687571,-0.131053 0.583426,0.112001 -0.511723,1.194242 -1.111274,1.098174 -1.388246,1.176953 -1.084609,0.308483 0.86294,-2.46819 -1.171659,-4.644163 -3.356416,-3.589634 -3.123553,1.50767 -4.140826,4.863014 -1.845682,6.087746 0.644071,0.343693 2.234971,-1.535075 1.685141,-1.990062 -0.301599,-0.249572 -0.320069,-0.491949 -0.03748,-0.491949 0.294795,0 3.007018,2.751225 2.858352,2.899456 -0.06719,0.067 -0.265821,0.03239 -0.44139,-0.07695 -0.491187,-0.30586 -0.609194,-0.258279 -1.542669,0.621982 l -0.870372,0.820755 z m -7.098859,-6.85036 c -1.459459,-1.461273 -1.844431,-2.073679 -0.926622,-1.474067 0.567676,0.370871 0.64391,0.316475 3.273458,-2.335599 2.340661,-2.360715 2.444627,-2.518706 1.988279,-3.021489 -0.952261,-1.04916 0.228483,-0.256071 1.503338,1.00977 1.274583,1.265573 2.076404,2.432573 1.097042,1.596681 -0.630223,-0.537904 -0.674385,-0.510675 -3.161302,1.949189 -2.486902,2.459847 -2.70681,2.79568 -2.197847,3.356435 0.949794,1.046442 -0.323974,0.173002 -1.576346,-1.08092 z m -3.289277,-3.279662 c -1.462664,-1.464477 -1.844215,-2.073536 -0.921238,-1.470547 0.502764,0.328461 0.801299,0.159314 2.152278,-1.219452 l 0.816651,-0.83345 -0.976474,-0.983885 -0.976473,-0.983886 -1.114773,1.102997 c -1.14198,1.129915 -1.309986,1.526826 -0.857365,2.025503 0.949793,1.046442 -0.323975,0.173 -1.576347,-1.080923 -1.416971,-1.418727 -1.873766,-2.129175 -0.957597,-1.489343 0.568293,0.396885 0.520784,0.429529 3.127628,-2.14896 2.498388,-2.471211 2.635951,-2.674073 2.165084,-3.192851 -0.95226,-1.04916 0.228483,-0.256071 1.503338,1.00977 1.257601,1.248711 2.133603,2.518755 1.084093,1.571738 -0.490419,-0.442525 -0.896048,-0.287526 -1.903172,0.727241 l -0.976486,0.983898 0.975955,0.983364 0.975956,0.983364 0.718021,-0.696394 c 1.239484,-1.202149 1.426492,-1.538151 1.117657,-2.008115 -0.651398,-0.99125 -0.131388,-0.684248 1.374184,0.81129 1.340516,1.33158 2.195121,2.546446 1.184576,1.683938 -0.630224,-0.537903 -0.674386,-0.510674 -3.161303,1.94919 -2.486902,2.459849 -2.70681,2.795682 -2.197847,3.356437 0.949794,1.04644 -0.323974,0.173 -1.576346,-1.080924 z M 63.336795,59.767332 C 62.959068,59.644114 62.404003,59.389761 62.103317,59.202103 61.139188,58.600388 17.180512,14.579051 16.509993,13.543793 12.447103,7.2708295 15.305105,1.1005314 22.719763,0.13717914 23.640887,0.01750187 36.507247,-0.02181423 63.941334,0.01121721 l 39.882486,0.04801967 1.20529,0.37233122 c 5.92154,1.8292414 9.5576,7.6288816 7.78365,12.4152089 -0.90469,2.440961 -1.2166,2.803094 -9.4645,10.988439 C 77.876036,49.114238 67.634683,59.110421 66.819451,59.48955 65.81821,59.955174 64.287052,60.077306 63.336795,59.767332 Z M 63.91613,55.891209 C 64.449054,55.650087 68.635245,51.614122 80.362514,40.035038 107.93756,12.808432 107.69758,13.0518 108.46444,11.53649 110.7312,7.0574435 109.04033,3.4096987 104.11164,2.146103 103.07273,1.8797536 100.43198,1.8614922 62.954551,1.8614922 H 22.907605 l -1.360908,0.3880245 c -3.364388,0.9592592 -4.888718,2.7556766 -4.888718,5.7613384 0,3.5874619 -0.790581,2.7135889 31.852151,35.2079369 14.111232,14.047082 13.492535,13.538165 15.406,12.672417 z m -4.333088,-6.855866 c -0.776763,-0.366484 -1.093202,-0.695787 -1.612686,-1.678255 -0.288264,-0.545171 -0.495715,-0.741277 -0.825244,-0.780121 -0.656766,-0.07742 -0.547336,-0.343648 0.612263,-1.489579 1.168151,-1.154385 1.561543,-1.21577 1.038687,-0.162078 -0.840523,1.693882 0.157695,3.855969 1.612218,3.491974 0.851337,-0.213047 0.924123,-0.902192 0.314198,-2.974829 -1.26061,-4.283813 3.065853,-6.163311 4.697509,-2.040685 0.183367,0.463301 0.275549,0.5295 0.618004,0.443801 0.528782,-0.132328 0.453036,0.01848 -0.563253,1.121438 -1.047455,1.136777 -1.533918,1.272892 -0.957781,0.26799 0.500803,-0.8735 0.178659,-2.549195 -0.566516,-2.946834 -1.266999,-0.676095 -1.860775,0.190609 -1.326802,1.936677 1.211765,3.962441 -0.17796,6.161116 -3.040597,4.810501 z m -4.062694,-4.087315 -0.927581,-0.942902 0.397781,-2.206011 c 0.475661,-2.637893 0.39476,-2.851142 -0.6844,-1.804053 -1.292732,1.25431 -1.465101,1.566302 -1.139272,2.062123 0.603397,0.918208 -0.0057,0.544117 -1.435872,-0.881874 -1.441046,-1.436833 -1.804525,-2.032762 -0.865797,-1.419482 l 0.438447,0.286443 2.563617,-2.556122 2.563616,-2.556121 -0.287283,-0.437165 c -0.651806,-0.991875 0.02498,-0.529041 1.812186,1.239283 2.496592,2.470227 2.853448,3.170413 2.295006,4.503045 -0.434616,1.037142 -1.724398,1.477405 -2.905572,0.991809 -0.318197,-0.130816 -0.915124,3.102401 -0.754725,4.087938 0.125789,0.772879 0.01311,0.73425 -1.070151,-0.366911 z m 2.77524,-5.647501 c 0.864186,-0.828896 0.830542,-1.661523 -0.101109,-2.50219 l -0.353222,-0.318729 -1.172802,1.169369 c -1.291715,1.287937 -1.299881,1.367225 -0.210226,2.040756 0.620471,0.383522 1.148302,0.27171 1.837359,-0.389206 z m 11.237516,2.628558 C 68.83918,41.735409 42.117436,15.23995 41.130845,13.767344 38.642731,10.053527 40.08465,6.0756675 44.317442,4.9763882 45.533707,4.6605179 95.706846,4.6015017 97.196051,4.9141895 c 4.279589,0.8985814 5.899739,5.0189093 3.446969,8.7662255 -0.935987,1.429986 -27.56239,27.682223 -28.513165,28.112479 -0.760296,0.344059 -1.679284,0.392257 -2.596751,0.136191 z m 1.696568,-1.796196 c 0.93564,-0.475648 27.586856,-26.98654 28.113254,-27.965237 0.810104,-1.506165 0.811474,-2.9367997 0.0031,-3.3497648 C 98.753669,8.5152397 48.317605,8.3781268 46.879754,8.6752553 44.146065,9.2401665 43.05411,11.491802 44.289266,14.0169 c 0.52569,1.074698 24.741331,25.51838 25.792322,26.035212 0.627887,0.308769 0.690799,0.313195 1.147988,0.08078 z M 45.388595,34.922986 c -3.709698,-3.605285 -4.620621,-4.636498 -3.627541,-4.106572 0.416827,0.222428 0.564457,-0.172266 0.796084,-2.128375 0.234381,-1.979359 0.121103,-2.057474 -1.117939,-0.770912 -1.004164,1.042674 -1.200825,1.489802 -0.821579,1.867939 0.107039,0.106726 0.14121,0.247297 0.07594,0.31238 -0.06528,0.06508 -0.797096,-0.558096 -1.626267,-1.384844 -1.512266,-1.507844 -1.763415,-1.942502 -0.807705,-1.397867 l 0.512556,0.29209 2.47007,-2.457696 c 2.535533,-2.522827 2.665022,-2.713131 2.196972,-3.228807 -0.94429,-1.040379 0.222814,-0.264808 1.46435,0.9731 0.829173,0.826746 1.45418,1.556427 1.388906,1.621511 -0.06527,0.06508 -0.206258,0.03101 -0.313297,-0.07571 -0.379068,-0.377959 -0.827502,-0.182224 -1.87062,0.816499 -1.268824,1.214826 -1.368417,1.09179 1.103125,1.362812 2.372728,0.260189 2.809652,0.165259 2.363592,-0.513524 -0.556352,-0.846616 -0.03181,-0.573742 1.15319,0.599912 1.390253,1.376936 1.402997,1.422092 0.305949,1.084046 -3.543758,-1.091976 -4.284773,-0.827993 -4.574975,1.629814 -0.417635,3.537099 -0.367691,3.9408 0.564069,4.559394 0.606768,0.402831 0.539433,0.448495 3.158108,-2.141695 2.498389,-2.471212 2.635951,-2.674073 2.165085,-3.192852 -1.273768,-1.403383 0.4685,-0.01883 2.41709,1.92083 l 2.461263,2.449977 -0.898723,0.896098 c -0.970825,0.967987 -1.275941,1.008806 -0.849944,0.11371 0.473924,-0.995804 0.276798,-1.699919 -0.751728,-2.685118 l -0.554628,-0.53126 -1.124005,1.129375 -1.124007,1.129375 0.428307,0.279817 c 0.471034,0.30773 1.201367,0.166574 1.763756,-0.340897 1.11711,-1.008011 0.273858,0.376232 -1.015786,1.667475 -1.421282,1.423045 -2.391315,1.941578 -1.486443,0.794583 0.413691,-0.524384 0.458909,-1.417215 0.08735,-1.72468 -0.452591,-0.374519 -2.499388,1.84504 -2.164785,2.347507 0.790905,1.187683 2.275055,1.710851 3.456793,1.218533 0.334503,-0.139356 0.646085,-0.192231 0.692407,-0.117499 0.07893,0.127341 -0.08848,0.272811 -1.55721,1.353139 l -0.575623,0.423401 z m -9.455873,-9.497403 c -1.201017,-1.203079 -1.915796,-2.309571 -0.899628,-1.39264 0.420178,0.379145 0.773376,0.13911 1.096823,-0.745405 l 0.252397,-0.690209 -0.981121,-0.974325 -0.981119,-0.974323 -0.698971,0.314382 c -0.721344,0.324444 -0.837376,0.586071 -0.521183,1.175156 0.365544,0.681029 -0.05269,0.500012 -0.996637,-0.431358 -0.989745,-0.976554 -1.132818,-1.34157 -0.419918,-1.071318 0.500586,0.189766 0.628681,0.151194 4.917927,-1.480852 4.29006,-1.632356 4.012671,-1.960755 2.22097,2.629402 -1.23111,3.153977 -1.480275,3.94125 -1.410809,4.457647 0.11502,0.855035 0.06248,0.827875 -1.578731,-0.816157 z m 1.22397,-4.759341 c 0.449027,-1.125064 -0.757767,-1.274563 -1.986273,-0.24606 -0.03958,0.03314 0.251832,0.389229 0.647598,0.791305 0.833993,0.847292 0.772978,0.872144 1.338675,-0.545245 z m -8.201598,-2.176043 c -1.210156,-0.597267 -2.182588,-1.979773 -2.182588,-3.102985 0,-0.834873 0.441341,-1.459394 2.512556,-3.555399 L 31.261841,9.8313791 30.977598,9.398838 c -0.613583,-0.93371 -0.0114,-0.5620558 1.46567,0.904563 1.477061,1.466618 1.940049,2.214084 0.893613,1.442683 l -0.490068,-0.361264 -2.247727,2.241156 c -2.765164,2.757079 -2.971789,3.936991 -0.785267,4.484169 1.316715,0.32951 5.734979,-3.826052 5.098194,-4.795066 -0.529035,-0.80505 -0.05763,-0.598359 0.984815,0.431801 0.903214,0.892569 1.410279,1.819328 0.590883,1.079952 -0.518514,-0.467876 -0.857854,-0.272347 -2.786513,1.605595 -2.593595,2.525393 -3.235091,2.803526 -4.746104,2.057772 z M 21.839336,14.47301 c -1.046418,-0.975939 -1.393399,-1.854881 -1.26961,-3.21606 0.06881,-0.756571 0.025,-1.142905 -0.171883,-1.5157902 -2.02518,-3.8356329 3.583433,-7.7666819 6.912468,-4.8449154 3.616359,3.1739408 0.162192,9.3039716 -4.215067,7.4803826 -1.23518,-0.514581 -1.329383,1.171095 -0.126122,2.256847 0.188038,0.169675 0.302259,0.372429 0.253826,0.450566 -0.185916,0.299941 -0.605562,0.114618 -1.383612,-0.61103 z m 2.431648,-3.493634 c 3.357087,-1.7118038 4.534696,-5.9441179 1.646254,-5.9166137 -1.581274,0.015057 -4.572039,3.0463473 -4.572039,4.6339903 0,1.2681284 1.588512,1.9645094 2.925785,1.2826234 z"
       id="path2328"
       inkscape:label="foreground"
       sodipodi:insensitive="true" />
  </g>
</svg>
