<?xml version="1.0" encoding="UTF-8" standalone="no"?>
<!-- Created with Inkscape (http://www.inkscape.org/) -->

<svg
   version="1.1"
   id="svg1825"
   width="128"
   height="128"
   viewBox="0 0 128 128"
   sodipodi:docname="logo.svg"
   inkscape:version="1.2.1 (9c6d41e410, 2022-07-14)"
   inkscape:export-filename="logo.png"
   inkscape:export-xdpi="96"
   inkscape:export-ydpi="96"
   xmlns:inkscape="http://www.inkscape.org/namespaces/inkscape"
   xmlns:sodipodi="http://sodipodi.sourceforge.net/DTD/sodipodi-0.dtd"
   xmlns="http://www.w3.org/2000/svg"
   xmlns:svg="http://www.w3.org/2000/svg">
  <defs
     id="defs1829" />
  <sodipodi:namedview
     id="namedview1827"
     pagecolor="#505050"
     bordercolor="#eeeeee"
     borderopacity="1"
     inkscape:showpageshadow="0"
     inkscape:pageopacity="0"
     inkscape:pagecheckerboard="0"
     inkscape:deskcolor="#505050"
     showgrid="false"
     showguides="false"
     inkscape:zoom="4"
     inkscape:cx="52.5"
     inkscape:cy="57.5"
     inkscape:window-width="1920"
     inkscape:window-height="1027"
     inkscape:window-x="-8"
     inkscape:window-y="22"
     inkscape:window-maximized="1"
     inkscape:current-layer="g1831" />
  <g
     inkscape:groupmode="layer"
     inkscape:label="Image"
     id="g1831">
    <path
       style="display:inline;fill:#293d82;fill-opacity:1;stroke-width:0.164223"
       d="m 24.058852,127.80526 c -8.084827,-1.77824 -11.417773,-9.92847 -6.528066,-15.96343 0.629372,-0.77678 26.094528,-26.00885 39.996458,-39.630365 4.357711,-4.269816 5.674295,-4.834993 8.273908,-3.551801 1.271748,0.627743 44.730988,43.863836 46.009298,45.773056 3.67526,5.48918 2.04069,11.00307 -3.87503,13.07164 l -1.31571,0.46007 -40.787042,0.029 c -33.314448,0.0236 -40.967821,-0.0108 -41.773816,-0.18811 z m 80.571498,-3.85438 c 5.15456,-1.31447 6.77579,-5.52091 3.86094,-10.01758 -0.87043,-1.34278 -42.220013,-42.817191 -43.363283,-43.494184 -0.975584,-0.577702 -2.113946,-0.555139 -3.015439,0.05976 -0.836078,0.570277 -42.733334,41.971664 -43.37271,42.859374 -3.331719,4.62578 -1.835678,9.20142 3.460834,10.58496 1.913989,0.49997 80.470478,0.50727 82.429658,0.008 z m -75.208606,-2.64114 c -4.498223,-0.88082 -6.187995,-5.38917 -3.414091,-9.10888 1.05645,-1.41666 27.526995,-27.480515 28.255169,-27.821062 0.746095,-0.348925 2.091229,-0.362125 2.899662,-0.02844 0.752668,0.310656 26.810355,26.188042 27.93555,27.742252 2.80859,3.87945 1.304106,8.20395 -3.18403,9.1522 -1.278722,0.27017 -51.128967,0.33089 -52.49226,0.0639 z m 52.800845,-2.08346 c 2.258839,-0.91055 2.995005,-2.83551 1.940705,-5.07463 -0.430736,-0.91479 -25.458767,-26.058697 -26.101543,-26.222388 -0.828563,-0.211 -1.377729,0.291531 -14.830252,13.571008 -15.293713,15.09699 -15.264001,15.06254 -14.749959,17.10465 0.266507,1.05875 -0.0792,1.04599 27.647761,1.01998 l 25.162968,-0.0236 z m 9.090657,-5.94963 c -2.394681,-2.39118 -3.048255,-3.22485 -1.982165,-2.52836 0.552085,0.36068 0.71789,0.23977 3.432541,-2.50308 2.250456,-2.27384 2.228469,-2.24023 1.833443,-2.80256 -0.651992,-0.92813 0.08241,-0.45029 1.537012,1.00006 1.317967,1.31412 2.083495,2.43414 1.071076,1.56706 -0.158852,-0.13604 -0.386598,-0.30308 -0.506102,-0.37118 -0.209491,-0.11938 -5.127792,4.54879 -5.127792,4.86702 0,1.0637 2.19939,2.0926 3.455565,1.61656 1.545857,-0.58582 1.550077,-0.4109 0.02015,0.83531 l -1.129255,0.91985 z m -4.965215,-5.00121 c -3.670201,-1.82359 -3.330351,-7.07448 0.530304,-8.19352 3.53625,-1.025017 6.879234,2.87035 5.254028,6.12218 -1.083626,2.1682 -3.702173,3.10589 -5.784332,2.07134 z m 1.489842,-1.15727 c 3.419825,-1.73087 4.653376,-5.98922 1.72687,-5.96136 -1.597015,0.0152 -4.555329,3.009 -4.568425,4.62321 -0.01002,1.2352 1.572506,1.98045 2.841555,1.33815 z m -8.232859,-5.56603 c -3.670201,-1.823598 -3.330352,-7.074488 0.530303,-8.193529 3.53625,-1.025011 6.879235,2.870354 5.254029,6.122178 -1.083627,2.168211 -3.702174,3.105901 -5.784332,2.071351 z m 1.489842,-1.15728 c 3.419825,-1.730865 4.653376,-5.989222 1.72687,-5.961356 -1.597016,0.01522 -4.55533,3.009002 -4.568425,4.623209 -0.01002,1.235207 1.572505,1.980457 2.841555,1.338147 z m -7.617847,-4.902297 c -1.462664,-1.464481 -1.844215,-2.073539 -0.921239,-1.470548 0.502766,0.328458 0.801304,0.159314 2.152281,-1.219455 l 0.816651,-0.833449 -0.976473,-0.983882 -0.976474,-0.983888 -1.114777,1.102996 c -1.141975,1.129914 -1.309985,1.526825 -0.857365,2.025503 0.949794,1.046442 -0.323973,0.173002 -1.576345,-1.08092 -1.416969,-1.41873 -1.873767,-2.129176 -0.957596,-1.489345 0.568295,0.396885 0.520785,0.429528 3.12763,-2.148962 2.498385,-2.471208 2.635949,-2.674071 2.165084,-3.192846 -0.952261,-1.049163 0.228481,-0.256075 1.503338,1.009766 1.257599,1.24871 2.1336,2.518754 1.084089,1.571736 -0.490415,-0.442523 -0.896045,-0.287523 -1.90317,0.727245 l -0.976484,0.983898 0.975955,0.983365 0.975954,0.98336 0.718023,-0.69639 c 1.239482,-1.202149 1.426493,-1.53815 1.117655,-2.008115 -0.6514,-0.991252 -0.131391,-0.68425 1.374183,0.81129 1.340514,1.331578 2.195119,2.546446 1.184577,1.683937 -0.630226,-0.537906 -0.674384,-0.510674 -3.161304,1.949189 -2.486899,2.459847 -2.706807,2.795679 -2.197848,3.356435 0.949794,1.046442 -0.323974,0.173002 -1.576345,-1.08092 z m -7.029103,-7.059069 c -2.824075,-1.403182 -3.490842,-4.844596 -1.351841,-6.977339 2.193835,-2.187425 5.682976,-1.54372 7.220235,1.33204 0.472885,0.884632 0.587516,0.997985 0.92405,0.913769 0.704152,-0.176215 0.562688,0.166566 -0.503624,1.220305 -1.178949,1.165054 -1.398965,1.1865 -0.981145,0.09564 0.832871,-2.174461 -1.292912,-4.145153 -3.397319,-3.149463 -3.778459,1.787753 -3.887303,6.330098 -0.151682,6.330098 0.845653,0 0.990997,0.104969 0.635776,0.459152 -0.334499,0.333521 -1.489641,0.225364 -2.39445,-0.224206 z M 60.405361,82.487875 C 59.628598,82.121394 59.31216,81.79209 58.792675,80.809622 58.504411,80.26445 58.29696,80.068347 57.967431,80.029503 c -0.656765,-0.07742 -0.547335,-0.343652 0.612263,-1.48958 1.168151,-1.154384 1.561543,-1.215771 1.038687,-0.162077 -0.840523,1.693883 0.157695,3.855968 1.612219,3.491972 0.851336,-0.213045 0.924122,-0.902194 0.314197,-2.974826 -1.26061,-4.283815 3.065853,-6.163312 4.697509,-2.040687 0.183367,0.463298 0.275549,0.529501 0.618004,0.4438 0.528782,-0.132329 0.453036,0.0185 -0.563253,1.121439 -1.047455,1.136776 -1.533918,1.272892 -0.957781,0.267989 0.500803,-0.873502 0.178659,-2.549193 -0.566516,-2.946836 -1.266999,-0.676092 -1.860775,0.190609 -1.326802,1.93668 1.211765,3.962439 -0.17796,6.161113 -3.040597,4.810498 z M 117.76739,113.19987 C 114.66283,112.36608 115.13644,112.80053 90.397193,88.093065 66.097002,63.824097 67.888276,65.783489 67.888594,63.471959 c 3.29e-4,-2.081467 -1.209683,-0.752195 21.757066,-23.902263 25.11839,-25.318888 23.60462,-23.986544 27.74643,-24.420958 4.12917,-0.43309 9.15423,3.818722 10.30754,8.721425 C 127.98618,25.088338 128,26.995283 128,65.322917 v 40.175843 l -0.37175,1.39385 c -1.34785,5.05362 -5.24566,7.54676 -9.86086,6.30726 z m 2.66728,-4.02219 c 1.6385,-0.77996 2.89353,-2.52684 3.49722,-4.86779 0.44366,-1.72039 0.44133,-80.197615 -0.003,-81.919981 -1.3593,-5.275872 -5.73814,-6.908824 -10.32925,-3.851966 -0.99653,0.663513 -42.780874,42.550205 -43.429098,43.535482 -0.541713,0.823379 -0.567518,1.742786 -0.07698,2.742483 0.525708,1.071372 42.288638,42.579482 43.798798,43.531552 2.18356,1.37662 4.71814,1.69829 6.54173,0.83022 z M 114.53334,86.222019 C 112.5996,85.740053 112.63566,85.772747 98.192378,71.406334 90.522242,63.777019 84.375267,57.534596 84.213532,57.210422 c -0.404673,-0.811101 -0.3854,-2.368627 0.03911,-3.158329 0.395026,-0.73491 26.942378,-27.469777 27.992298,-28.190031 3.72376,-2.554524 7.97209,-0.914779 8.90842,3.438422 0.31582,1.468307 0.25885,51.498566 -0.06,52.71925 -0.84252,3.225198 -3.54202,4.954486 -6.55997,4.202285 z m 2.85875,-2.048332 c 0.52217,-0.265965 1.20593,-0.997596 1.52768,-1.634649 0.61485,-1.2174 0.62728,-1.812474 0.57707,-27.629042 -0.0564,-28.9868 0.098,-26.401265 -1.5767,-26.401265 -2.04433,0 -1.53319,-0.452065 -16.43135,14.532217 -13.668802,13.747817 -13.994441,14.100129 -13.797099,14.927203 0.132306,0.554504 24.882059,25.144955 25.960869,25.79377 1.30737,0.786278 2.7026,0.939909 3.73953,0.411766 z M 91.642174,80.971996 c -2.394681,-2.391185 -3.048255,-3.224854 -1.982165,-2.528367 0.552085,0.36068 0.71789,0.239774 3.43254,-2.503078 2.250457,-2.27384 2.22847,-2.240228 1.833443,-2.802557 -0.651991,-0.928128 0.08241,-0.450287 1.537013,1.000061 1.317967,1.314114 2.083494,2.434138 1.071075,1.567057 -0.158851,-0.136044 -0.386598,-0.303076 -0.506101,-0.371175 -0.209491,-0.119385 -5.127792,4.548786 -5.127792,4.867016 0,1.063696 2.19939,2.092602 3.455565,1.616559 1.545857,-0.585824 1.550077,-0.410895 0.02015,0.835315 l -1.129255,0.919847 z m -5.756235,-5.903389 c -2.394681,-2.391185 -3.048255,-3.224854 -1.982164,-2.528367 0.552084,0.360681 0.71789,0.239774 3.43254,-2.503077 2.250456,-2.27384 2.22847,-2.240229 1.833443,-2.802557 -0.651991,-0.928129 0.08241,-0.450287 1.537012,1.00006 1.317967,1.314114 2.083495,2.434139 1.071076,1.567058 -0.158851,-0.136044 -0.386598,-0.303077 -0.506101,-0.371176 -0.209491,-0.119384 -5.127793,4.548787 -5.127793,4.867016 0,1.063696 2.199391,2.092603 3.455565,1.61656 1.545858,-0.585824 1.550077,-0.410895 0.02015,0.835314 l -1.129255,0.919847 z m -4.514666,-4.337479 c -1.459457,-1.461273 -1.844431,-2.073678 -0.92662,-1.474068 0.567678,0.370873 0.643907,0.316476 3.273457,-2.3356 2.34066,-2.360715 2.444627,-2.518702 1.988281,-3.021485 -0.952261,-1.049163 0.228481,-0.256074 1.503338,1.009767 1.27458,1.265575 2.076402,2.432575 1.097041,1.596682 -0.630226,-0.537905 -0.674384,-0.510674 -3.161304,1.949189 -2.486898,2.459848 -2.706807,2.79568 -2.197848,3.356435 0.949794,1.046442 -0.323973,0.173002 -1.576345,-1.08092 z m -3.289277,-3.27966 c -1.462664,-1.464481 -1.844215,-2.073539 -0.921239,-1.470548 0.502766,0.328458 0.801304,0.159314 2.152282,-1.219455 l 0.81665,-0.833449 -0.976473,-0.983882 -0.976473,-0.983888 -1.114777,1.102996 c -1.141975,1.129914 -1.309985,1.526825 -0.857366,2.025503 0.949795,1.046442 -0.323973,0.173002 -1.576344,-1.08092 -1.416969,-1.41873 -1.873768,-2.129176 -0.957596,-1.489345 0.568294,0.396885 0.520785,0.429528 3.127629,-2.148961 2.498386,-2.471209 2.63595,-2.674071 2.165084,-3.192847 -0.952261,-1.049163 0.228482,-0.256075 1.503339,1.009766 1.257598,1.24871 2.133599,2.518754 1.084089,1.571736 -0.490416,-0.442523 -0.896045,-0.287523 -1.903171,0.727245 l -0.976483,0.983898 0.975954,0.983365 0.975954,0.98336 0.718024,-0.69639 c 1.239481,-1.202149 1.426492,-1.53815 1.117655,-2.008115 -0.6514,-0.991252 -0.131391,-0.68425 1.374183,0.81129 1.340513,1.331578 2.195119,2.546446 1.184576,1.683937 -0.630225,-0.537906 -0.674384,-0.510674 -3.161303,1.949189 -2.486899,2.459847 -2.706808,2.79568 -2.197849,3.356435 0.949794,1.046442 -0.323973,0.173002 -1.576345,-1.08092 z M 8.0990426,112.40328 c -3.1169933,-0.75504 -6.7761081,-4.6668 -7.76242182,-8.29838 -0.44882771,-1.65257 -0.44882771,-81.6508 0,-83.30337 C 2.1028998,14.298141 8.3799386,12.222069 13.87755,16.322994 c 2.155252,1.607703 45.270675,44.704517 45.740009,45.720263 0.637379,1.379456 0.641697,2.9085 0.01182,4.187286 -0.450678,0.914964 -41.231536,42.265717 -43.307685,43.912887 -2.535415,2.01155 -5.679975,2.87577 -8.2226452,2.25985 z m 1.3290904,-3.79383 c 1.346364,-0.34472 2.553412,-0.95463 3.675329,-1.85711 1.558756,-1.25387 42.585056,-42.6774 42.895198,-43.310513 0.374007,-0.763484 0.343802,-1.737292 -0.07898,-2.546451 C 55.44305,59.983169 13.684405,18.434727 12.435569,17.630156 7.7973044,14.641926 3.6278879,16.133067 2.1557951,21.306591 1.688999,22.9471 1.6893494,101.9605 2.1561569,103.60125 c 1.1229767,3.94704 3.912651,5.86829 7.271973,5.0082 z M 8.3862643,100.85339 C 6.8715667,100.31295 5.6337353,98.976582 5.0206604,97.219863 4.6801647,96.2442 4.6461633,45.012254 4.985136,43.692983 c 0.9377015,-3.649506 4.2968472,-5.209067 7.807943,-3.625017 1.094734,0.493895 27.608312,26.405133 28.814093,28.159485 1.426796,2.075928 1.058522,2.826924 -3.801652,7.752471 C 11.14865,102.99536 12.11047,102.18216 8.3862643,100.85339 Z M 12.065489,98.693634 C 13.16785,98.15907 39.908948,71.487182 40.256585,70.575503 40.376098,70.262081 40.35868,70.001681 40.192645,69.619626 39.812664,68.745269 15.020847,44.235334 14.045268,43.769545 11.882589,42.736977 9.9983464,43.330255 8.9851404,45.362794 l -0.3858887,0.774111 v 25.991307 c 0,27.837224 -0.026443,26.93792 0.7972914,27.114443 0.6648259,0.142465 1.6689169,-0.06408 2.6689459,-0.549021 z m 31.80803,-32.390047 c -1.462665,-1.464481 -1.844216,-2.073539 -0.921239,-1.470548 0.502765,0.328458 0.8013,0.159314 2.152278,-1.219455 l 0.816652,-0.833449 -0.976475,-0.983882 -0.976472,-0.983888 -1.114774,1.102996 c -1.141979,1.129914 -1.309986,1.526825 -0.857365,2.025503 0.949794,1.046442 -0.323974,0.173002 -1.576346,-1.08092 -1.416971,-1.41873 -1.873766,-2.129176 -0.957598,-1.489345 0.568293,0.396885 0.520785,0.429528 3.127629,-2.148962 2.498388,-2.471208 2.635951,-2.674071 2.165084,-3.192846 -0.95226,-1.049163 0.228483,-0.256075 1.503338,1.009766 1.2576,1.24871 2.133603,2.518754 1.084093,1.571736 -0.49042,-0.442523 -0.896048,-0.287523 -1.903172,0.727245 l -0.976486,0.983898 0.975954,0.983365 0.975957,0.98336 0.718021,-0.69639 c 1.239483,-1.202149 1.426492,-1.53815 1.117657,-2.008115 -0.651399,-0.991252 -0.131389,-0.68425 1.374184,0.81129 1.340515,1.331578 2.195118,2.546446 1.184575,1.683937 -0.630223,-0.537906 -0.674385,-0.510674 -3.161302,1.949189 -2.486902,2.459847 -2.70681,2.795679 -2.197847,3.356435 0.949793,1.046442 -0.323974,0.173002 -1.576346,-1.08092 z m -6.55164,-6.76023 c -2.227276,-1.187616 -3.329249,-2.665093 -3.442491,-4.615538 -0.28716,-4.946034 6.230574,-6.174155 8.541576,-1.609473 0.430982,0.851277 0.540342,0.960352 0.895068,0.892739 0.687571,-0.131053 0.583426,0.112001 -0.511723,1.194242 -1.111274,1.098174 -1.388246,1.176953 -1.084609,0.308483 0.86294,-2.46819 -1.171659,-4.644163 -3.356416,-3.589634 -3.123553,1.50767 -4.140826,4.863014 -1.845682,6.087746 0.644071,0.343693 2.234971,-1.535075 1.685141,-1.990062 -0.301599,-0.249572 -0.320069,-0.491949 -0.03748,-0.491949 0.294795,0 3.007018,2.751225 2.858352,2.899456 -0.06719,0.067 -0.265821,0.03239 -0.44139,-0.07695 -0.491187,-0.30586 -0.609194,-0.258279 -1.542669,0.621982 l -0.870372,0.820755 z m -7.098859,-6.85036 c -1.459459,-1.461273 -1.844431,-2.073679 -0.926622,-1.474067 0.567676,0.370871 0.64391,0.316475 3.273458,-2.335599 2.340661,-2.360715 2.444627,-2.518706 1.988279,-3.021489 -0.952261,-1.04916 0.228483,-0.256071 1.503338,1.00977 1.274583,1.265573 2.076404,2.432573 1.097042,1.596681 -0.630223,-0.537904 -0.674385,-0.510675 -3.161302,1.949189 -2.486902,2.459847 -2.70681,2.79568 -2.197847,3.356435 0.949794,1.046442 -0.323974,0.173002 -1.576346,-1.08092 z m -3.289277,-3.279662 c -1.462664,-1.464477 -1.844215,-2.073536 -0.921238,-1.470547 0.502764,0.328461 0.801299,0.159314 2.152278,-1.219452 l 0.816651,-0.83345 -0.976474,-0.983885 -0.976473,-0.983886 -1.114773,1.102997 c -1.14198,1.129915 -1.309986,1.526826 -0.857365,2.025503 0.949793,1.046442 -0.323975,0.173 -1.576347,-1.080923 -1.416971,-1.418727 -1.873766,-2.129175 -0.957597,-1.489343 0.568293,0.396885 0.520784,0.429529 3.127628,-2.14896 2.498388,-2.471211 2.635951,-2.674073 2.165084,-3.192851 -0.95226,-1.04916 0.228483,-0.256071 1.503338,1.00977 1.257601,1.248711 2.133603,2.518755 1.084093,1.571738 -0.490419,-0.442525 -0.896048,-0.287526 -1.903172,0.727241 l -0.976486,0.983898 0.975955,0.983364 0.975956,0.983364 0.718021,-0.696394 c 1.239484,-1.202149 1.426492,-1.538151 1.117657,-2.008115 -0.651398,-0.99125 -0.131388,-0.684248 1.374184,0.81129 1.340516,1.33158 2.195121,2.546446 1.184576,1.683938 -0.630224,-0.537903 -0.674386,-0.510674 -3.161303,1.94919 -2.486902,2.459849 -2.70681,2.795682 -2.197847,3.356437 0.949794,1.04644 -0.323974,0.173 -1.576346,-1.080924 z M 63.336795,59.767332 C 62.959068,59.644114 62.404003,59.389761 62.103317,59.202103 61.139188,58.600388 17.180512,14.579051 16.509993,13.543793 12.447103,7.2708295 15.305105,1.1005314 22.719763,0.13717914 23.640887,0.01750187 36.507247,-0.02181423 63.941334,0.01121721 l 39.882486,0.04801967 1.20529,0.37233122 c 5.92154,1.8292414 9.5576,7.6288816 7.78365,12.4152089 -0.90469,2.440961 -1.2166,2.803094 -9.4645,10.988439 C 77.876036,49.114238 67.634683,59.110421 66.819451,59.48955 65.81821,59.955174 64.287052,60.077306 63.336795,59.767332 Z M 63.91613,55.891209 C 64.449054,55.650087 68.635245,51.614122 80.362514,40.035038 107.93756,12.808432 107.69758,13.0518 108.46444,11.53649 110.7312,7.0574435 109.04033,3.4096987 104.11164,2.146103 103.07273,1.8797536 100.43198,1.8614922 62.954551,1.8614922 H 22.907605 l -1.360908,0.3880245 c -3.364388,0.9592592 -4.888718,2.7556766 -4.888718,5.7613384 0,3.5874619 -0.790581,2.7135889 31.852151,35.2079369 14.111232,14.047082 13.492535,13.538165 15.406,12.672417 z m -4.333088,-6.855866 c -0.776763,-0.366484 -1.093202,-0.695787 -1.612686,-1.678255 -0.288264,-0.545171 -0.495715,-0.741277 -0.825244,-0.780121 -0.656766,-0.07742 -0.547336,-0.343648 0.612263,-1.489579 1.168151,-1.154385 1.561543,-1.21577 1.038687,-0.162078 -0.840523,1.693882 0.157695,3.855969 1.612218,3.491974 0.851337,-0.213047 0.924123,-0.902192 0.314198,-2.974829 -1.26061,-4.283813 3.065853,-6.163311 4.697509,-2.040685 0.183367,0.463301 0.275549,0.5295 0.618004,0.443801 0.528782,-0.132328 0.453036,0.01848 -0.563253,1.121438 -1.047455,1.136777 -1.533918,1.272892 -0.957781,0.26799 0.500803,-0.8735 0.178659,-2.549195 -0.566516,-2.946834 -1.266999,-0.676095 -1.860775,0.190609 -1.326802,1.936677 1.211765,3.962441 -0.17796,6.161116 -3.040597,4.810501 z m -4.062694,-4.087315 -0.927581,-0.942902 0.397781,-2.206011 c 0.475661,-2.637893 0.39476,-2.851142 -0.6844,-1.804053 -1.292732,1.25431 -1.465101,1.566302 -1.139272,2.062123 0.603397,0.918208 -0.0057,0.544117 -1.435872,-0.881874 -1.441046,-1.436833 -1.804525,-2.032762 -0.865797,-1.419482 l 0.438447,0.286443 2.563617,-2.556122 2.563616,-2.556121 -0.287283,-0.437165 c -0.651806,-0.991875 0.02498,-0.529041 1.812186,1.239283 2.496592,2.470227 2.853448,3.170413 2.295006,4.503045 -0.434616,1.037142 -1.724398,1.477405 -2.905572,0.991809 -0.318197,-0.130816 -0.915124,3.102401 -0.754725,4.087938 0.125789,0.772879 0.01311,0.73425 -1.070151,-0.366911 z m 2.77524,-5.647501 c 0.864186,-0.828896 0.830542,-1.661523 -0.101109,-2.50219 l -0.353222,-0.318729 -1.172802,1.169369 c -1.291715,1.287937 -1.299881,1.367225 -0.210226,2.040756 0.620471,0.383522 1.148302,0.27171 1.837359,-0.389206 z m 11.237516,2.628558 C 68.83918,41.735409 42.117436,15.23995 41.130845,13.767344 38.642731,10.053527 40.08465,6.0756675 44.317442,4.9763882 45.533707,4.6605179 95.706846,4.6015017 97.196051,4.9141895 c 4.279589,0.8985814 5.899739,5.0189093 3.446969,8.7662255 -0.935987,1.429986 -27.56239,27.682223 -28.513165,28.112479 -0.760296,0.344059 -1.679284,0.392257 -2.596751,0.136191 z m 1.696568,-1.796196 c 0.93564,-0.475648 27.586856,-26.98654 28.113254,-27.965237 0.810104,-1.506165 0.811474,-2.9367997 0.0031,-3.3497648 C 98.753669,8.5152397 48.317605,8.3781268 46.879754,8.6752553 44.146065,9.2401665 43.05411,11.491802 44.289266,14.0169 c 0.52569,1.074698 24.741331,25.51838 25.792322,26.035212 0.627887,0.308769 0.690799,0.313195 1.147988,0.08078 z M 45.388595,34.922986 c -3.709698,-3.605285 -4.620621,-4.636498 -3.627541,-4.106572 0.416827,0.222428 0.564457,-0.172266 0.796084,-2.128375 0.234381,-1.979359 0.121103,-2.057474 -1.117939,-0.770912 -1.004164,1.042674 -1.200825,1.489802 -0.821579,1.867939 0.107039,0.106726 0.14121,0.247297 0.07594,0.31238 -0.06528,0.06508 -0.797096,-0.558096 -1.626267,-1.384844 -1.512266,-1.507844 -1.763415,-1.942502 -0.807705,-1.397867 l 0.512556,0.29209 2.47007,-2.457696 c 2.535533,-2.522827 2.665022,-2.713131 2.196972,-3.228807 -0.94429,-1.040379 0.222814,-0.264808 1.46435,0.9731 0.829173,0.826746 1.45418,1.556427 1.388906,1.621511 -0.06527,0.06508 -0.206258,0.03101 -0.313297,-0.07571 -0.379068,-0.377959 -0.827502,-0.182224 -1.87062,0.816499 -1.268824,1.214826 -1.368417,1.09179 1.103125,1.362812 2.372728,0.260189 2.809652,0.165259 2.363592,-0.513524 -0.556352,-0.846616 -0.03181,-0.573742 1.15319,0.599912 1.390253,1.376936 1.402997,1.422092 0.305949,1.084046 -3.543758,-1.091976 -4.284773,-0.827993 -4.574975,1.629814 -0.417635,3.537099 -0.367691,3.9408 0.564069,4.559394 0.606768,0.402831 0.539433,0.448495 3.158108,-2.141695 2.498389,-2.471212 2.635951,-2.674073 2.165085,-3.192852 -1.273768,-1.403383 0.4685,-0.01883 2.41709,1.92083 l 2.461263,2.449977 -0.898723,0.896098 c -0.970825,0.967987 -1.275941,1.008806 -0.849944,0.11371 0.473924,-0.995804 0.276798,-1.699919 -0.751728,-2.685118 l -0.554628,-0.53126 -1.124005,1.129375 -1.124007,1.129375 0.428307,0.279817 c 0.471034,0.30773 1.201367,0.166574 1.763756,-0.340897 1.11711,-1.008011 0.273858,0.376232 -1.015786,1.667475 -1.421282,1.423045 -2.391315,1.941578 -1.486443,0.794583 0.413691,-0.524384 0.458909,-1.417215 0.08735,-1.72468 -0.452591,-0.374519 -2.499388,1.84504 -2.164785,2.347507 0.790905,1.187683 2.275055,1.710851 3.456793,1.218533 0.334503,-0.139356 0.646085,-0.192231 0.692407,-0.117499 0.07893,0.127341 -0.08848,0.272811 -1.55721,1.353139 l -0.575623,0.423401 z m -9.455873,-9.497403 c -1.201017,-1.203079 -1.915796,-2.309571 -0.899628,-1.39264 0.420178,0.379145 0.773376,0.13911 1.096823,-0.745405 l 0.252397,-0.690209 -0.981121,-0.974325 -0.981119,-0.974323 -0.698971,0.314382 c -0.721344,0.324444 -0.837376,0.586071 -0.521183,1.175156 0.365544,0.681029 -0.05269,0.500012 -0.996637,-0.431358 -0.989745,-0.976554 -1.132818,-1.34157 -0.419918,-1.071318 0.500586,0.189766 0.628681,0.151194 4.917927,-1.480852 4.29006,-1.632356 4.012671,-1.960755 2.22097,2.629402 -1.23111,3.153977 -1.480275,3.94125 -1.410809,4.457647 0.11502,0.855035 0.06248,0.827875 -1.578731,-0.816157 z m 1.22397,-4.759341 c 0.449027,-1.125064 -0.757767,-1.274563 -1.986273,-0.24606 -0.03958,0.03314 0.251832,0.389229 0.647598,0.791305 0.833993,0.847292 0.772978,0.872144 1.338675,-0.545245 z m -8.201598,-2.176043 c -1.210156,-0.597267 -2.182588,-1.979773 -2.182588,-3.102985 0,-0.834873 0.441341,-1.459394 2.512556,-3.555399 L 31.261841,9.8313791 30.977598,9.398838 c -0.613583,-0.93371 -0.0114,-0.5620558 1.46567,0.904563 1.477061,1.466618 1.940049,2.214084 0.893613,1.442683 l -0.490068,-0.361264 -2.247727,2.241156 c -2.765164,2.757079 -2.971789,3.936991 -0.785267,4.484169 1.316715,0.32951 5.734979,-3.826052 5.098194,-4.795066 -0.529035,-0.80505 -0.05763,-0.598359 0.984815,0.431801 0.903214,0.892569 1.410279,1.819328 0.590883,1.079952 -0.518514,-0.467876 -0.857854,-0.272347 -2.786513,1.605595 -2.593595,2.525393 -3.235091,2.803526 -4.746104,2.057772 z M 21.839336,14.47301 c -1.046418,-0.975939 -1.393399,-1.854881 -1.26961,-3.21606 0.06881,-0.756571 0.025,-1.142905 -0.171883,-1.5157902 -2.02518,-3.8356329 3.583433,-7.7666819 6.912468,-4.8449154 3.616359,3.1739408 0.162192,9.3039716 -4.215067,7.4803826 -1.23518,-0.514581 -1.329383,1.171095 -0.126122,2.256847 0.188038,0.169675 0.302259,0.372429 0.253826,0.450566 -0.185916,0.299941 -0.605562,0.114618 -1.383612,-0.61103 z m 2.431648,-3.493634 c 3.357087,-1.7118038 4.534696,-5.9441179 1.646254,-5.9166137 -1.581274,0.015057 -4.572039,3.0463473 -4.572039,4.6339903 0,1.2681284 1.588512,1.9645094 2.925785,1.2826234 z"
       id="path2328"
       inkscape:label="foreground" />
    <path
       style="fill:#ffffff;stroke:#ffffff;stroke-width:0.125"
       d="M 6.2857549,108.63116 C 4.488742,108.06955 2.7687846,106.06318 2.1816813,103.84368 1.9086168,102.81138 1.7577029,88.013182 1.7581409,62.3125 1.758536,39.13205 1.909054,22.216597 2.1235254,21.25 c 0.076272,-0.34375 0.3580351,-1.079758 0.6261395,-1.635572 1.676279,-3.47514 4.8748751,-4.465626 8.6027841,-2.66396 1.260903,0.609383 2.194349,1.476067 11.835051,10.988573 19.031906,18.778834 32.574524,32.451599 32.897324,33.213474 0.311371,0.734899 0.256452,1.823799 -0.120243,2.384124 -0.574956,0.855236 -30.903029,31.580353 -39.527081,40.044551 -3.995101,3.92106 -4.537792,4.32905 -6.6069169,4.96707 -0.9953599,0.30693 -2.7004004,0.3468 -3.5448282,0.0829 z m 4.9929651,-7.52559 c 2.1403,-0.82974 5.737392,-4.177785 19.890265,-18.513125 8.732264,-8.844845 10.209242,-10.426274 10.768632,-11.530178 0.681782,-1.34543 0.358388,-2.03801 -2.234283,-4.78494 C 35.968452,62.320229 17.614571,44.412115 13.988974,41.1875 12.453551,39.821891 11.958774,39.625 10.0625,39.625 c -1.2589709,0 -1.4319343,0.02935 -2.0496981,0.347857 -0.9677285,0.498937 -1.554568,1.000077 -2.0466224,1.747742 -0.777392,1.181228 -0.923634,1.78712 -1.0204311,4.227717 -0.1125125,2.836838 -0.088229,44.502895 0.028187,48.364184 L 5.0625,97.25 5.4373526,97.989823 c 0.7506244,1.481464 1.8025994,2.380397 3.4613001,2.957737 1.1970643,0.41667 1.6374493,0.4459 2.3800673,0.15801 z M 45.31206,67.266872 c -0.153986,-0.235013 -0.165611,-0.369567 -0.0567,-0.65625 0.154117,-0.405661 3.963107,-4.301695 4.582231,-4.686946 0.381298,-0.237262 0.419475,-0.239102 0.8125,-0.03916 l 0.412404,0.209795 -0.309015,-0.359653 c -0.646384,-0.75231 -1.955544,-2.076315 -2.299201,-2.325274 l -0.358217,-0.259505 0.139467,0.260595 c 0.318535,0.595187 0.17899,0.959382 -0.747882,1.951866 -0.488041,0.52259 -0.953423,0.950164 -1.034182,0.950164 -0.08076,0 -0.595515,-0.454556 -1.143903,-1.010125 L 44.3125,60.292251 45.305135,59.361262 c 1.062464,-0.996481 1.404464,-1.164252 1.906774,-0.935385 0.27999,0.127572 0.257508,0.07285 -0.18605,-0.452886 -0.466233,-0.552607 -0.786945,-0.868584 -1.866428,-1.838872 l -0.403069,-0.362297 0.146625,0.388455 c 0.11599,0.307293 0.111588,0.453925 -0.02107,0.701803 -0.09224,0.172341 -1.164494,1.300439 -2.382799,2.506884 -1.858444,1.840353 -2.274191,2.193536 -2.582107,2.193536 -0.201855,0 -0.433572,-0.06656 -0.514925,-0.147916 -0.08136,-0.08135 -0.178105,-0.117729 -0.215003,-0.08083 -0.09142,0.09142 2.53505,2.728748 2.717508,2.728748 0.107998,0 0.106818,-0.03859 -0.0046,-0.15 -0.233074,-0.233074 -0.177315,-0.779806 0.120024,-1.176893 0.425272,-0.567937 1.771981,-1.923107 1.911099,-1.923107 0.06921,0 0.559957,0.431566 1.090538,0.959035 l 0.964693,0.959035 -0.249439,0.350305 c -0.137191,0.192667 -0.676137,0.722447 -1.197657,1.177291 -0.961104,0.838223 -1.070603,0.876884 -1.726759,0.609674 -0.302775,-0.123301 0.964265,1.276319 1.9019,2.10091 0.758384,0.666951 0.878626,0.72693 0.59766,0.298122 z m -6.217508,-8.215746 c 0.823002,-0.769877 0.944775,-0.812232 1.576239,-0.548247 0.200149,0.08367 0.215003,0.06376 0.104553,-0.140175 -0.198017,-0.365615 -2.47056,-2.550204 -2.65288,-2.550204 -0.114969,0 -0.10187,0.06557 0.04566,0.228592 0.396191,0.437787 0.168148,1.063514 -0.660394,1.812052 -0.581215,0.525092 -0.879686,0.567556 -1.397516,0.19883 -0.948972,-0.675729 -1.134081,-2.285295 -0.414806,-3.606842 0.464411,-0.853276 1.541594,-1.829538 2.53005,-2.293012 0.652299,-0.305854 0.903785,-0.35986 1.460692,-0.313676 1.640437,0.136037 2.617413,1.748118 2.169805,3.580335 -0.103288,0.422796 -0.143283,0.768721 -0.08888,0.768721 0.155692,0 1.857921,-1.674796 1.857921,-1.82798 0,-0.07554 -0.126563,-0.115696 -0.28125,-0.08923 -0.389108,0.06658 -0.481299,-0.02241 -1.064988,-1.028067 -0.615791,-1.060964 -1.422993,-1.835199 -2.381868,-2.284593 -0.603314,-0.282753 -0.877622,-0.332481 -1.834394,-0.332551 -0.956146,-6.9e-5 -1.231104,0.04966 -1.831923,0.331339 -1.43523,0.672865 -2.251111,1.98221 -2.252126,3.614262 -0.001,1.573383 0.429394,2.532387 1.639045,3.65231 0.738084,0.683335 2.15122,1.583757 2.491575,1.58758 0.09436,0.001 0.53783,-0.340691 0.985481,-0.759446 z m -7.475783,-5.375269 c -0.07701,-0.143903 -0.108609,-0.38682 -0.07021,-0.539815 0.101568,-0.404678 1.544733,-1.995937 3.241548,-3.574185 1.503892,-1.398803 1.916659,-1.617591 2.309893,-1.224357 0.109605,0.109605 0.15,0.111246 0.15,0.0061 0,-0.07915 -0.56856,-0.712461 -1.263465,-1.407368 -1.182723,-1.182722 -1.585816,-1.479468 -1.225116,-0.901896 0.23898,0.382668 -0.119083,0.839763 -2.543447,3.246916 -2.287743,2.271503 -2.419163,2.354549 -3.066097,1.9375 -0.294929,-0.190127 -0.274488,-0.13918 0.156225,0.389363 0.415216,0.509527 2.300474,2.32758 2.415047,2.328959 0.01961,2.5e-4 -0.02736,-0.11731 -0.104378,-0.261214 z m -3.262313,-3.29164 c -0.076,-0.166805 -0.100179,-0.454711 -0.05373,-0.639791 0.09436,-0.375974 3.662061,-4.075275 4.470842,-4.635761 0.488193,-0.338318 0.51291,-0.342296 0.866336,-0.139458 0.349552,0.200615 0.358897,0.199622 0.238482,-0.02538 -0.152288,-0.284552 -2.524312,-2.652075 -2.590652,-2.585735 -0.0259,0.0259 0.01913,0.192456 0.10008,0.370118 0.217967,0.478385 -0.0075,0.899133 -1.020153,1.904066 l -0.870079,0.863411 -1.030043,-1.034982 -1.030042,-1.034982 1.02723,-0.994113 c 1.09825,-1.062844 1.462254,-1.20759 1.949866,-0.775364 0.237548,0.210565 0.241823,0.209396 0.11424,-0.03125 -0.157784,-0.297615 -2.57497,-2.6875 -2.7182,-2.6875 -0.05466,0 0.0011,0.111065 0.123976,0.24681 0.196434,0.217056 0.203743,0.296169 0.06062,0.65625 -0.219396,0.551991 -4.37854,4.687887 -4.827571,4.800587 -0.224438,0.05633 -0.464795,0.01463 -0.702705,-0.12191 l -0.36159,-0.207523 0.376301,0.469142 c 0.365734,0.455969 1.587411,1.65944 2.319605,2.285036 L 25.161052,47.375 24.941746,47.032161 c -0.3403,-0.531991 -0.157131,-0.909487 1.029903,-2.122537 l 1.079376,-1.103034 0.974487,0.968772 C 28.56148,45.308187 29,45.808015 29,45.88609 c 0,0.199956 -2.03469,2.1309 -2.351265,2.231376 -0.152673,0.04846 -0.428864,-0.0038 -0.664584,-0.125661 l -0.403342,-0.208578 0.404385,0.510579 c 0.351922,0.444338 2.363755,2.393694 2.470412,2.393694 0.02147,0 -0.02315,-0.136478 -0.09915,-0.303283 z"
       id="path258" />
    <path
       style="fill:#ffffff;stroke:#ffffff;stroke-width:0.125"
       d="M 61.8125,55.951144 C 61.46875,55.753687 60.68125,55.150855 60.0625,54.611516 57.551385,52.42268 26.641658,21.624994 22.24956,16.935639 18.411474,12.837792 17.026945,11.036346 16.744064,9.7723018 16.514341,8.74579 16.647042,6.5546615 16.993606,5.6519275 17.431718,4.5107276 18.41298,3.5433087 19.801053,2.8840873 20.426099,2.5872414 21.365752,2.2224321 21.889172,2.0733998 l 0.951672,-0.2709676 40.298328,0.039267 40.298328,0.039267 0.97506,0.274767 c 3.03935,0.8564723 4.91885,2.8146623 5.06117,5.2730463 0.0759,1.3119103 -0.22141,2.6039645 -0.92079,4.0010475 -0.48269,0.964218 -0.81472,1.380657 -2.65981,3.335963 -3.11534,3.301452 -37.370425,37.104459 -40.58063,40.045082 -1.713208,1.569338 -2.376716,1.785504 -3.5,1.140272 z m 0.192481,-6.82872 c 0.202161,-0.104542 0.49468,-0.427979 0.650043,-0.71875 0.390981,-0.731749 0.388577,-2.494019 -0.0052,-3.849148 -0.483258,-1.662849 -0.303938,-2.492026 0.538932,-2.492026 0.65608,0 1.03347,0.238592 1.32282,0.836311 0.321465,0.664056 0.343253,1.848484 0.04463,2.425964 -0.352085,0.680857 -0.08103,0.550844 0.831368,-0.398781 0.852665,-0.887449 0.876032,-0.927649 0.56138,-0.96576 -0.254223,-0.03079 -0.401503,-0.18595 -0.652593,-0.6875 -0.478641,-0.956087 -0.863206,-1.415645 -1.493945,-1.785284 -0.463708,-0.271751 -0.673467,-0.320121 -1.177995,-0.271643 -1.719646,0.165237 -2.434371,2.000229 -1.763055,4.526485 0.343047,1.29093 0.349427,2.203869 0.0175,2.504258 -0.322293,0.291672 -1.12015,0.307281 -1.543048,0.03019 -0.804034,-0.526822 -1.119337,-2.143111 -0.646328,-3.313173 0.119273,-0.29504 0.183501,-0.569794 0.14273,-0.610564 -0.09939,-0.09939 -1.957166,1.709717 -1.957166,1.905896 0,0.08478 0.169187,0.213126 0.375972,0.285213 0.248375,0.08658 0.492304,0.333266 0.71875,0.726862 0.484119,0.841473 1.28579,1.603996 1.923223,1.829309 0.710149,0.251015 1.650384,0.260874 2.112036,0.02214 z m -5.484064,-4.10093 c -0.04025,-0.644969 0.213055,-2.413875 0.480809,-3.357654 l 0.130834,-0.461161 0.855534,0.07172 c 0.743055,0.0623 0.923328,0.03362 1.371208,-0.2181 1.006289,-0.565567 1.304577,-1.864345 0.661183,-2.87887 -0.422074,-0.665543 -2.241109,-2.59986 -3.311001,-3.520838 L 55.946722,34 l 0.294733,0.48153 0.294732,0.48153 -2.582165,2.58097 -2.582163,2.58097 -0.39036,-0.222653 c -0.214698,-0.12246 -0.414645,-0.198367 -0.444328,-0.168685 -0.02968,0.02968 0.547485,0.652514 1.282596,1.38407 0.73511,0.731557 1.367953,1.298714 1.406315,1.260352 0.03836,-0.03836 0.0032,-0.136313 -0.07817,-0.217668 C 53.066562,42.079062 53,41.849531 53,41.650346 c 0,-0.277379 0.19751,-0.566912 0.84375,-1.236867 1.658254,-1.719108 1.742291,-1.565502 1.097142,2.005392 l -0.278928,1.543871 0.850483,0.862379 c 0.467767,0.474309 0.895388,0.862455 0.950269,0.862549 0.05488,9.4e-5 0.08107,-0.299685 0.0582,-0.666176 z m 15.458599,-3.261918 c 0.183141,-0.09527 0.895484,-0.69386 1.582984,-1.330211 3.821926,-3.537585 16.78089,-16.27822 23.019125,-22.631306 3.413548,-3.476395 4.077135,-4.212147 4.404155,-4.883089 1.14675,-2.352814 0.94708,-4.4656313 -0.57765,-6.112523 C 99.619477,5.9506062 98.960883,5.5256022 97.839275,5.144712 L 97.0625,4.8809249 75.3125,4.8427639 C 63.35,4.8217754 51.444022,4.8509764 48.854771,4.9076552 l -4.707727,0.1030524 -1.044463,0.5175515 c -3.016482,1.4947258 -3.908012,4.3279489 -2.339574,7.4350079 0.24703,0.489363 0.952478,1.347925 2.162233,2.631535 2.210807,2.345777 18.869132,18.934273 22.63726,22.542369 3.661394,3.505896 3.871442,3.690145 4.343565,3.810055 0.528381,0.134199 1.64983,0.03271 2.073451,-0.18765 z m -21.4087,-3.644892 c 0.828048,-0.623207 1.16289,-0.927184 1.021329,-0.927184 -0.02619,0 -0.316304,0.09155 -0.644706,0.203451 -1.036022,0.353008 -2.068578,0.106308 -3.008252,-0.718737 -0.696931,-0.611914 -0.546297,-1.252604 0.552944,-2.351845 0.56837,-0.56837 1.037674,-0.742485 1.335359,-0.495428 0.27847,0.231109 0.16918,1.215596 -0.191119,1.721589 -0.545021,0.765412 0.02719,0.371839 1.294361,-0.89028 0.70751,-0.704688 1.355964,-1.4152 1.441009,-1.578918 l 0.154628,-0.297667 -0.429874,0.32788 c -0.697915,0.532326 -1.451,0.58411 -2.029386,0.139547 -0.23537,-0.180911 -0.19974,-0.23448 0.872393,-1.311603 0.614782,-0.617644 1.182107,-1.122989 1.260722,-1.122989 0.190716,0 1.102928,0.998477 1.351673,1.479497 0.249565,0.482605 0.253005,1.147133 0.009,1.73121 -0.104028,0.248973 -0.161996,0.479822 -0.12882,0.512998 0.03318,0.03318 0.433492,-0.302023 0.889594,-0.744885 L 55.150907,32.986115 52.98344,30.88791 c -1.192106,-1.154013 -2.280748,-2.158535 -2.419203,-2.232273 -0.224866,-0.119757 -0.233567,-0.112042 -0.08153,0.07227 0.349702,0.423941 0.03598,0.859456 -2.28949,3.178339 -2.018664,2.012942 -2.335103,2.28125 -2.690476,2.28125 -0.540444,0 -1.200077,-0.65465 -1.323719,-1.31372 -0.134825,-0.718681 0.260971,-4.202075 0.552284,-4.860636 0.1322,-0.29886 0.309622,-0.586185 0.394271,-0.638502 0.592116,-0.365948 1.888841,-0.262476 3.808222,0.303875 l 0.871302,0.257095 -1.056042,-1.061556 C 48.168237,26.2902 47.650796,25.8125 47.59919,25.8125 c -0.05161,0 -0.03139,0.137037 0.04492,0.304529 0.243279,0.533938 0.07082,0.696086 -0.73394,0.690061 -1.138837,-0.0085 -3.544151,-0.328124 -3.703296,-0.492063 -0.110249,-0.113568 0.08429,-0.365408 0.822984,-1.065388 0.995289,-0.94313 1.565391,-1.22118 1.91276,-0.93289 0.100309,0.08325 0.18238,0.110881 0.18238,0.0614 0,-0.133039 -1.592039,-1.761746 -2.306764,-2.359894 -0.557111,-0.466243 -0.591015,-0.479868 -0.33781,-0.135768 0.240298,0.326558 0.261358,0.435347 0.144021,0.743963 -0.07559,0.198812 -1.195915,1.428007 -2.489615,2.731545 l -2.352183,2.370072 -0.453824,-0.28048 C 38.079221,27.293326 37.875,27.217266 37.875,27.278567 c 0,0.125929 2.543965,2.658933 2.670437,2.658933 0.04492,0 0.01673,-0.10401 -0.06267,-0.231134 -0.248118,-0.397302 -0.01096,-0.859352 0.954785,-1.860164 0.873092,-0.904796 0.946365,-0.953351 1.142583,-0.757133 0.196217,0.196216 0.196107,0.31131 -0.0017,1.794683 -0.250291,1.876864 -0.343206,2.108514 -0.79977,1.993924 -0.302927,-0.07603 -0.287816,-0.03951 0.215278,0.520278 0.822687,0.915392 7.428992,7.400213 7.546629,7.407852 0.05669,0.0037 0.5203,-0.307324 1.030248,-0.691122 z M 37.525362,25.90625 c 0.04043,-0.579698 0.288932,-1.39397 0.963229,-3.15625 1.66402,-4.348928 1.696861,-4.447884 1.513706,-4.56108 -0.213345,-0.131855 -0.655542,0.0091 -3.638868,1.159791 -3.34245,1.289226 -4.137913,1.523285 -4.61351,1.357491 C 31.543714,20.634319 31.375,20.60488 31.375,20.640782 c 0,0.114709 1.426666,1.565573 1.664762,1.692998 0.204439,0.109412 0.213824,0.09398 0.08699,-0.143 -0.288979,-0.539961 -0.114578,-0.913813 0.606567,-1.300261 l 0.670822,-0.359482 1.010047,1.010048 1.010048,1.010047 -0.219025,0.694827 c -0.138233,0.438526 -0.331749,0.768687 -0.524619,0.89506 -0.282339,0.184996 -0.331755,0.183398 -0.649345,-0.02099 L 34.6875,23.8988 l 0.244826,0.3006 c 0.410678,0.504232 2.369553,2.4881 2.456756,2.4881 0.04499,0 0.106313,-0.351563 0.13628,-0.78125 z m -6.453125,-7.403369 c 0.357297,-0.178047 1.337125,-0.981792 2.305793,-1.89142 2.235035,-2.09881 2.614185,-2.321 3.143377,-1.842087 0.125727,0.11378 0.228593,0.165161 0.228593,0.11418 0,-0.140093 -1.526323,-1.7011 -1.8125,-1.853687 -0.224229,-0.119556 -0.232225,-0.11175 -0.07757,0.07573 0.261017,0.316403 0.09296,1.004797 -0.413843,1.695203 -1.003461,1.366989 -3.242487,3.165279 -4.153941,3.336269 -0.85559,0.16051 -2.04215,-0.568329 -2.04215,-1.254379 0,-0.681411 0.691384,-1.633159 2.623485,-3.611448 l 1.957912,-2.004718 0.48015,0.366228 c 0.377337,0.287809 0.451199,0.312806 0.344949,0.11674 -0.15783,-0.29126 -2.577435,-2.686992 -2.713757,-2.686992 -0.05076,0 0.02292,0.1819517 0.163722,0.4043372 l 0.256009,0.4043374 -1.852041,1.8769124 C 27.456121,13.829979 26.875,14.617229 26.875,15.31832 c 0,1.326639 1.13591,2.767672 2.608866,3.309649 0.653896,0.240602 0.892185,0.221837 1.588371,-0.125088 z M 23.125,15.0464 c 0,-0.07761 -0.193849,-0.355668 -0.430774,-0.617915 -0.729961,-0.807979 -0.849051,-1.970652 -0.222228,-2.169597 0.129975,-0.04125 0.48476,0.0157 0.78841,0.126572 1.712687,0.625328 3.672944,-0.05729 4.67847,-1.629183 C 29.453044,8.3892555 28.687595,5.4740942 26.25,4.3242909 25.685485,4.0580114 25.381851,4.000298 24.552647,4.0016656 c -0.913685,0.00151 -1.100391,0.046412 -1.960585,0.4715429 -2.129691,1.0525505 -3.070366,3.1570364 -2.240036,5.0114312 0.218554,0.4881019 0.273521,0.8494423 0.275719,1.8125003 0.0021,0.910965 0.06045,1.329967 0.240548,1.726649 0.464618,1.023375 2.256707,2.629565 2.256707,2.022611 z"
       id="path260" />
    <path
       style="fill:#ffffff;stroke:#ffffff;stroke-width:0.125"
       d="M 22.3125,11.136044 C 20.796599,10.462297 21.014465,8.863076 22.892685,6.877262 23.349287,6.3945037 24.079257,5.7886903 24.514841,5.5310099 25.183194,5.135629 25.419137,5.0625 26.026434,5.0625 c 0.618685,0 0.776881,0.051201 1.127844,0.3650296 0.380792,0.3405019 0.408086,0.4186479 0.406198,1.1629896 -0.0033,1.3043069 -0.734136,2.5506918 -2.199869,3.7517498 -1.086494,0.8903 -2.186444,1.176745 -3.048107,0.793775 z"
       id="path262" />
    <path
       style="fill:#ffffff;stroke:#ffffff;stroke-width:0.125"
       d="M 35.704605,21.192855 C 35.385822,20.85205 35.125,20.516922 35.125,20.448124 c 0,-0.0688 0.250106,-0.271657 0.55579,-0.4508 0.395546,-0.231806 0.692875,-0.314415 1.03125,-0.28652 0.445754,0.03675 0.477792,0.06695 0.512792,0.483394 0.05068,0.603072 -0.390517,1.618302 -0.703285,1.618302 -0.130535,0 -0.498159,-0.27884 -0.816942,-0.619645 z"
       id="path264" />
    <path
       style="fill:#ffffff;stroke:#ffffff;stroke-width:0.125"
       d="M 56.143755,39.561716 C 55.814299,39.323059 55.625,39.088392 55.625,38.918634 c 0,-0.168466 0.413745,-0.687784 1.11901,-1.404542 l 1.119011,-1.137244 0.441135,0.427565 c 0.979017,0.948901 0.86129,1.960748 -0.330427,2.839969 -0.562488,0.41499 -1.181587,0.387023 -1.829974,-0.08267 z"
       id="path266" />
    <path
       style="fill:#ffffff;stroke:#ffffff;stroke-width:0.176777"
       d="m 116.2756,109.49832 c -1.79007,-0.422 -2.5166,-1.01161 -9.05341,-7.34731 -8.481568,-8.220639 -35.720206,-35.437792 -36.647472,-36.618578 -0.4041,-0.514581 -0.787764,-1.218313 -0.852586,-1.563848 -0.293786,-1.566009 -1.36927,-0.400595 21.735678,-23.553192 13.81007,-13.838548 21.77902,-21.697402 22.44174,-22.131693 1.41387,-0.926531 2.59875,-1.294963 4.1883,-1.302332 1.09744,-0.0051 1.4991,0.07812 2.32311,0.481276 1.26436,0.618594 2.33558,1.778579 3.02929,3.280323 l 0.54387,1.177344 0.15195,4.684583 c 0.0836,2.57652 0.12483,21.071782 0.0917,41.100581 l -0.0603,36.415996 -0.38945,1.04639 c -0.80275,2.15688 -2.17058,3.72266 -3.71037,4.24732 -0.86737,0.29554 -2.71887,0.33614 -3.79206,0.0831 z m 1.74979,-23.686889 c 1.04687,-0.505912 2.23508,-1.853415 2.72373,-3.088879 l 0.41597,-1.051719 0.008,-26.162951 0.008,-26.162951 -0.40725,-1.007915 c -1.19233,-2.950937 -4.07261,-4.24936 -6.98346,-3.148124 -1.45645,0.551003 -3.35427,2.352656 -16.496384,15.660407 -13.349851,13.51811 -13.084366,13.232183 -13.23812,14.257491 -0.273392,1.823109 -0.842237,1.162849 12.344057,14.327763 12.430807,12.41066 15.819167,15.654911 16.956037,16.234898 1.48084,0.755464 3.28698,0.810375 4.67009,0.14198 z M 95.350719,82.533065 c 0.545918,-0.44943 0.99258,-0.845208 0.99258,-0.879508 0,-0.0343 -0.204052,0.01522 -0.45345,0.11004 -0.249397,0.09482 -0.865906,0.171093 -1.37002,0.169493 -1.531261,-0.0049 -3.028724,-1.132985 -2.590591,-1.951645 0.191039,-0.356958 4.15545,-4.167687 4.727949,-4.544667 0.363105,-0.239097 0.436264,-0.234135 0.751301,0.05097 0.191963,0.173724 0.349024,0.281779 0.349024,0.240123 0,-0.04166 -0.645327,-0.710269 -1.434062,-1.485806 -0.788733,-0.775537 -1.341657,-1.228982 -1.22872,-1.007654 0.272574,0.53417 0.03894,0.846417 -2.509614,3.354092 -1.934258,1.903229 -2.180897,2.07984 -2.7818,1.991959 -0.204807,-0.02995 -0.186602,0.05498 0.08076,0.376801 0.612179,0.736874 4.239923,4.392949 4.358908,4.392949 0.06334,0 0.561818,-0.367717 1.107738,-0.817147 z m -5.548158,-6.089107 c 0.442668,-0.404424 0.638684,-0.671891 0.441942,-0.603038 -1.286035,0.450063 -2.680094,0.233004 -3.628413,-0.564954 -0.835022,-0.702624 -0.700868,-1.04254 1.109345,-2.810818 2.635592,-2.574539 3.304577,-3.124143 3.682463,-3.025323 0.186563,0.04879 0.339207,0.07413 0.339207,0.05632 0,-0.01781 -0.547421,-0.575611 -1.216493,-1.239554 -1.052095,-1.044035 -1.204236,-1.143069 -1.125815,-0.732832 0.08005,0.418735 -0.190199,0.755215 -2.305313,2.870329 -2.074165,2.074165 -2.457192,2.384288 -2.851659,2.308882 -0.25062,-0.04791 -0.455672,-0.05033 -0.455672,-0.0054 0,0.04496 1.044954,1.144631 2.32212,2.443722 2.577895,2.622152 2.337085,2.537103 3.688288,1.302636 z m -7.119549,-5.116213 c 0.04109,-0.545496 0.550141,-1.159533 2.688972,-3.243548 1.771012,-1.725625 2.02375,-1.911465 2.503729,-1.84102 0.506817,0.07438 0.472867,0.01676 -0.669991,-1.137227 -1.167443,-1.178813 -1.205639,-1.201097 -1.26267,-0.736652 -0.04063,0.330875 -0.696413,1.130825 -2.121321,2.587666 -2.141838,2.189839 -2.790607,2.675677 -3.332943,2.495907 -0.176306,-0.05844 0.207683,0.419419 0.853311,1.061912 0.645627,0.642491 1.205432,1.168167 1.244012,1.168167 0.03858,0 0.08218,-0.159842 0.0969,-0.355205 z m -3.310276,-3.38764 c 0,-0.25738 0.78453,-1.168618 2.378152,-2.762241 2.088138,-2.088137 2.435385,-2.367211 2.847461,-2.288438 0.398086,0.0761 0.272589,-0.108327 -0.826932,-1.215235 -0.712932,-0.717722 -1.320917,-1.30495 -1.351078,-1.30495 -0.03016,0 0.02992,0.158382 0.133523,0.351957 0.251091,0.469167 -0.08329,1.092793 -1.134701,2.116201 l -0.810359,0.78878 -0.971586,-0.959518 c -0.534373,-0.527735 -0.971587,-1.044775 -0.971587,-1.148978 0,-0.372576 1.73019,-1.892518 2.284016,-2.006468 l 0.555257,-0.114246 -1.154471,-1.143941 c -1.103177,-1.093115 -1.154472,-1.122217 -1.154472,-0.654979 0,0.376554 -0.375919,0.879091 -1.635184,2.185954 -2.167483,2.249407 -3.245808,3.103553 -3.73439,2.958025 -0.240933,-0.07176 0.03461,0.306888 0.768273,1.055757 1.210698,1.235789 1.442348,1.38228 1.295033,0.818946 -0.06651,-0.254323 0.208709,-0.661014 1.016842,-1.502602 0.609417,-0.634642 1.197575,-1.153897 1.307019,-1.153897 0.109445,0 0.633794,0.442811 1.165223,0.984023 l 0.966233,0.984024 -1.212686,1.154188 c -0.95586,0.909753 -1.302163,1.137084 -1.635184,1.073421 -0.232375,-0.04442 -0.422499,-0.03444 -0.422499,0.02218 0,0.15678 2.00219,2.146128 2.159981,2.146128 0.07596,0 0.138116,-0.17284 0.138116,-0.384088 z"
       id="path270" />
    <path
       style="fill:#ffffff;stroke:#ffffff;stroke-width:0.176777"
       d="m 27.488776,124.19544 c -5.120149,-0.10861 -5.542355,-0.14212 -6.428277,-0.51032 -2.012278,-0.83632 -3.478434,-2.28003 -3.921676,-3.86164 -0.113786,-0.40602 -0.178307,-1.36662 -0.143378,-2.13466 0.05538,-1.21778 0.15949,-1.59015 0.813675,-2.91033 L 18.559288,113.2646 33.630634,98.344015 C 56.010497,76.188012 61.84098,70.500443 62.489135,70.192873 c 0.738743,-0.350556 1.512006,-0.352964 2.339336,-0.0073 0.669437,0.279709 27.113652,26.518938 38.263129,37.966527 5.0641,5.1995 5.52322,5.72267 6.11417,6.96704 0.53457,1.12564 0.65161,1.58683 0.7165,2.82331 0.0724,1.37964 0.0406,1.55302 -0.47876,2.60796 -0.30598,0.62154 -0.83656,1.37612 -1.17907,1.67685 -0.83921,0.73684 -2.4528,1.53138 -3.62417,1.78457 -1.0837,0.23423 -67.332054,0.39189 -77.151494,0.18359 z m 55.433521,-3.33054 c 1.290641,-0.51611 2.360842,-1.45075 2.950697,-2.57692 0.394348,-0.75291 0.475347,-1.13502 0.473565,-2.23408 -0.0018,-1.11485 -0.09059,-1.51437 -0.557957,-2.51068 -0.471168,-1.00442 -1.135758,-1.78859 -4.364254,-5.14953 -3.468513,-3.61079 -19.388665,-19.369903 -22.847069,-22.615955 -1.554258,-1.458823 -1.925127,-1.630628 -3.245993,-1.50371 -0.648716,0.06233 -1.032454,0.227577 -1.53721,0.661948 -1.370597,1.179473 -16.421971,15.905517 -22.079867,21.602627 -6.750915,6.79769 -6.870363,6.96158 -6.870745,9.42691 -2.47e-4,1.55426 0.29954,2.34687 1.332663,3.52353 0.64491,0.73452 2.096404,1.48108 3.283795,1.689 0.471505,0.0826 12.47151,0.13462 26.666679,0.11569 l 25.809397,-0.0344 z m 12.537118,-6.41388 c 0.394219,-0.35081 0.490434,-0.50492 0.265165,-0.42472 -0.699954,0.24919 -2.00391,0.29683 -2.613926,0.0955 -0.820695,-0.27086 -1.540326,-0.95564 -1.540326,-1.46574 0,-0.65223 4.744368,-5.20409 5.229963,-5.01775 0.410635,0.15758 0.293594,-0.0384 -0.58217,-0.97463 -1.014019,-1.08407 -1.474878,-1.37763 -1.337398,-0.85191 0.07339,0.28065 -0.426644,0.8787 -2.306319,2.75838 -2.21978,2.21977 -2.441536,2.39393 -2.952691,2.31891 -0.496919,-0.0729 -0.307443,0.16458 1.878496,2.35471 l 2.431161,2.43582 0.454664,-0.339 c 0.250065,-0.18645 0.733086,-0.58676 1.073381,-0.88958 z m -5.987803,-6.09184 c 1.12437,-0.38311 2.00066,-1.17362 2.553458,-2.3035 0.40385,-0.82544 0.461762,-1.12512 0.376702,-1.94927 -0.266156,-2.57881 -2.783575,-4.51024 -5.179712,-3.97401 -3.024729,0.67691 -4.342237,4.16883 -2.485551,6.5877 1.28759,1.67746 2.941866,2.2501 4.735103,1.63908 z m -6.874586,-6.68987 c 3.196584,-0.96203 4.106183,-4.6415 1.733876,-7.013808 -1.838563,-1.838563 -4.504492,-1.802256 -6.160557,0.0839 -0.505661,0.575915 -1.095706,2.058397 -1.095706,2.752945 0,0.753727 0.604993,2.202945 1.189935,2.850403 1.249329,1.38286 2.68487,1.82241 4.332452,1.32656 z m -7.773073,-5.481099 c -0.0909,-0.475517 1.0805,-1.867441 3.374547,-4.00983 1.308178,-1.221693 1.76263,-1.426055 2.236648,-1.005801 0.137081,0.121534 -0.09659,-0.166978 -0.51928,-0.641137 -1.113569,-1.249177 -2.247321,-2.248752 -1.979634,-1.745348 0.268476,0.504887 0.125839,0.768353 -1.025391,1.894007 l -0.897479,0.87754 -0.971965,-0.95989 c -0.534579,-0.52794 -0.971964,-1.059145 -0.971964,-1.180455 0,-0.265561 2.047097,-2.001221 2.360308,-2.001221 0.121347,0 0.316091,0.09546 0.432764,0.212132 0.116673,0.116672 0.212132,0.174344 0.212132,0.128157 0,-0.04618 -0.587228,-0.667281 -1.30495,-1.380214 -1.105149,-1.097774 -1.291244,-1.224541 -1.215431,-0.827953 0.07836,0.409927 -0.205132,0.766273 -2.274779,2.859339 -2.043494,2.066618 -2.428779,2.381818 -2.839529,2.323003 l -0.475234,-0.06805 0.326498,0.453919 c 0.305856,0.425222 0.805775,0.911162 1.716528,1.66853 0.374298,0.311259 0.382851,0.31058 0.295498,-0.02345 -0.06148,-0.235087 0.18507,-0.673975 0.778748,-1.386292 1.435407,-1.72225 1.318271,-1.69896 2.527332,-0.502514 l 1.051514,1.040539 -1.016671,1.034627 c -1.271663,1.294122 -1.519035,1.436019 -2.033136,1.166243 l -0.397747,-0.208718 0.337596,0.42347 c 0.269234,0.33772 2.255893,2.278045 2.333735,2.279306 0.01082,1.77e-4 -0.01648,-0.188794 -0.06066,-0.419933 z m -6.1358,-7.617465 c 0.318534,-0.240928 0.286922,-0.259945 -0.440731,-0.265165 -1.679361,-0.01204 -2.840045,-1.057087 -2.840045,-2.557084 0,-2.676652 3.389532,-5.062156 5.427301,-3.819656 0.987091,0.601865 1.40392,2.048539 0.941035,3.266018 -0.247286,0.650413 -0.0418,0.56541 0.91763,-0.379594 0.854118,-0.841274 1.071386,-1.235906 0.57572,-1.045701 -0.296138,0.113639 -0.480315,-0.07345 -1.369944,-1.391624 -0.665765,-0.986473 -2.041051,-1.924224 -3.065942,-2.09054 -2.297395,-0.372816 -4.639773,1.474821 -4.807384,3.792002 -0.155868,2.154855 1.264323,4.062126 3.414516,4.585589 0.794555,0.193434 0.875591,0.187312 1.247844,-0.09425 z m -5.939706,-6.012265 c 1.091762,-0.564572 1.293162,-2.219826 0.603942,-4.963628 -0.239863,-0.954898 -0.244311,-1.175329 -0.03246,-1.608853 0.202613,-0.414621 0.348724,-0.497348 0.836649,-0.473704 0.897861,0.04351 1.302052,0.565333 1.391065,1.795906 0.04315,0.596513 -0.01121,1.204685 -0.127025,1.42108 -0.349721,0.653459 0.100165,0.416058 0.874375,-0.4614 0.651331,-0.738192 0.698619,-0.846159 0.391219,-0.893212 -0.21005,-0.03215 -0.476422,-0.334616 -0.667125,-0.757519 -0.174603,-0.387199 -0.622543,-0.979623 -0.995423,-1.316498 -0.941963,-0.851008 -1.878578,-0.860437 -2.711716,-0.0273 -0.927683,0.927683 -1.075184,1.800612 -0.63053,3.731568 0.203307,0.882887 0.369101,1.778553 0.368427,1.990369 -0.0018,0.561558 -0.470484,0.940705 -1.162899,0.940705 -1.361407,0 -2.093032,-1.819548 -1.399265,-3.479966 0.147117,-0.3521 0.242004,-0.665663 0.210861,-0.696806 -0.03114,-0.03114 -0.52354,0.415219 -1.094218,0.991913 l -1.037594,1.048536 0.471797,0.179378 c 0.270479,0.102835 0.71072,0.567675 1.031719,1.089363 0.431586,0.701418 0.766168,1.006023 1.459788,1.328999 1.046935,0.487492 1.520665,0.521887 2.218415,0.161066 z"
       id="path278" />
    <path
       style="fill:#ffffff;stroke:#ffffff;stroke-width:0.176777"
       d="m 85.716907,107.12674 c -0.253952,-0.13802 -0.562515,-0.49426 -0.685696,-0.79165 -0.189282,-0.45696 -0.177281,-0.66293 0.0775,-1.33007 0.790967,-2.07112 3.462716,-4.18112 4.942698,-3.90347 1.795734,0.33688 1.494969,2.98551 -0.556969,4.90486 -0.480555,0.44951 -1.12094,0.94512 -1.423078,1.10136 -0.672031,0.34752 -1.734193,0.35608 -2.354456,0.019 z"
       id="path280" />
    <path
       style="fill:#ffffff;stroke:#ffffff;stroke-width:0.176777"
       d="m 78.896192,100.32855 c -0.65563,-0.399768 -0.894753,-1.223671 -0.588744,-2.028535 0.567968,-1.493869 2.893139,-3.675469 4.173321,-3.915633 0.707717,-0.132768 1.598344,0.178349 1.84847,0.645715 0.489879,0.915347 -0.02107,2.594674 -1.182412,3.886178 -1.48418,1.650535 -3.021942,2.161455 -4.250635,1.412275 z"
       id="path282" />
  </g>
</svg>
